<?xml version="1.0" encoding="utf-8" standalone="no"?>
<!DOCTYPE svg PUBLIC "-//W3C//DTD SVG 1.1//EN"
  "http://www.w3.org/Graphics/SVG/1.1/DTD/svg11.dtd">
<!-- Created with matplotlib (https://matplotlib.org/) -->
<svg height="297.190125pt" version="1.1" viewBox="0 0 394.423125 297.190125" width="394.423125pt" xmlns="http://www.w3.org/2000/svg" xmlns:xlink="http://www.w3.org/1999/xlink">
 <defs>
  <style type="text/css">
*{stroke-linecap:butt;stroke-linejoin:round;}
  </style>
 </defs>
 <g id="figure_1">
  <g id="patch_1">
   <path d="M 0 297.190125 
L 394.423125 297.190125 
L 394.423125 0 
L 0 0 
z
" style="fill:#ffffff;"/>
  </g>
  <g id="axes_1">
   <g id="patch_2">
    <path d="M 30.103125 273.312 
L 387.223125 273.312 
L 387.223125 7.2 
L 30.103125 7.2 
z
" style="fill:#ffffff;"/>
   </g>
   <g id="PathCollection_1">
    <defs>
     <path d="M 0 3 
C 0.795609 3 1.55874 2.683901 2.12132 2.12132 
C 2.683901 1.55874 3 0.795609 3 0 
C 3 -0.795609 2.683901 -1.55874 2.12132 -2.12132 
C 1.55874 -2.683901 0.795609 -3 0 -3 
C -0.795609 -3 -1.55874 -2.683901 -2.12132 -2.12132 
C -2.683901 -1.55874 -3 -0.795609 -3 0 
C -3 0.795609 -2.683901 1.55874 -2.12132 2.12132 
C -1.55874 2.683901 -0.795609 3 0 3 
z
" id="mff2c35acda" style="stroke:#1f77b4;"/>
    </defs>
    <g clip-path="url(#p90fbbadad4)">
     <use style="fill:#1f77b4;stroke:#1f77b4;" x="225.250467" xlink:href="#mff2c35acda" y="180.656536"/>
    </g>
   </g>
   <g id="PathCollection_2">
    <g clip-path="url(#p90fbbadad4)">
     <use style="fill:#1f77b4;stroke:#1f77b4;" x="260.184877" xlink:href="#mff2c35acda" y="109.961975"/>
    </g>
   </g>
   <g id="PathCollection_3">
    <g clip-path="url(#p90fbbadad4)">
     <use style="fill:#1f77b4;stroke:#1f77b4;" x="358.270821" xlink:href="#mff2c35acda" y="78.292383"/>
    </g>
   </g>
   <g id="PathCollection_4">
    <g clip-path="url(#p90fbbadad4)">
     <use style="fill:#1f77b4;stroke:#1f77b4;" x="256.350783" xlink:href="#mff2c35acda" y="37.148613"/>
    </g>
   </g>
   <g id="PathCollection_5">
    <g clip-path="url(#p90fbbadad4)">
     <use style="fill:#1f77b4;stroke:#1f77b4;" x="230.281737" xlink:href="#mff2c35acda" y="91.159761"/>
    </g>
   </g>
   <g id="PathCollection_6">
    <g clip-path="url(#p90fbbadad4)">
     <use style="fill:#1f77b4;stroke:#1f77b4;" x="367.853619" xlink:href="#mff2c35acda" y="20.788979"/>
    </g>
   </g>
   <g id="PathCollection_7">
    <g clip-path="url(#p90fbbadad4)">
     <use style="fill:#1f77b4;stroke:#1f77b4;" x="318.403349" xlink:href="#mff2c35acda" y="257.851773"/>
    </g>
   </g>
   <g id="PathCollection_8">
    <g clip-path="url(#p90fbbadad4)">
     <use style="fill:#1f77b4;stroke:#1f77b4;" x="369.985641" xlink:href="#mff2c35acda" y="51.197067"/>
    </g>
   </g>
   <g id="PathCollection_9">
    <g clip-path="url(#p90fbbadad4)">
     <use style="fill:#1f77b4;stroke:#1f77b4;" x="198.610447" xlink:href="#mff2c35acda" y="235.312678"/>
    </g>
   </g>
   <g id="PathCollection_10">
    <g clip-path="url(#p90fbbadad4)">
     <use style="fill:#1f77b4;stroke:#1f77b4;" x="79.305887" xlink:href="#mff2c35acda" y="198.021531"/>
    </g>
   </g>
   <g id="PathCollection_11">
    <g clip-path="url(#p90fbbadad4)">
     <use style="fill:#1f77b4;stroke:#1f77b4;" x="323.740131" xlink:href="#mff2c35acda" y="150.918169"/>
    </g>
   </g>
   <g id="PathCollection_12">
    <g clip-path="url(#p90fbbadad4)">
     <use style="fill:#1f77b4;stroke:#1f77b4;" x="154.676183" xlink:href="#mff2c35acda" y="227.940188"/>
    </g>
   </g>
   <g id="PathCollection_13">
    <g clip-path="url(#p90fbbadad4)">
     <use style="fill:#1f77b4;stroke:#1f77b4;" x="302.459425" xlink:href="#mff2c35acda" y="78.150219"/>
    </g>
   </g>
   <g id="PathCollection_14">
    <g clip-path="url(#p90fbbadad4)">
     <use style="fill:#1f77b4;stroke:#1f77b4;" x="262.585905" xlink:href="#mff2c35acda" y="258.563006"/>
    </g>
   </g>
   <g id="PathCollection_15">
    <g clip-path="url(#p90fbbadad4)">
     <use style="fill:#1f77b4;stroke:#1f77b4;" x="311.192579" xlink:href="#mff2c35acda" y="75.909551"/>
    </g>
   </g>
   <g id="PathCollection_16">
    <g clip-path="url(#p90fbbadad4)">
     <use style="fill:#1f77b4;stroke:#1f77b4;" x="111.359987" xlink:href="#mff2c35acda" y="258.969847"/>
    </g>
   </g>
   <g id="PathCollection_17">
    <g clip-path="url(#p90fbbadad4)">
     <use style="fill:#1f77b4;stroke:#1f77b4;" x="195.221424" xlink:href="#mff2c35acda" y="205.04393"/>
    </g>
   </g>
   <g id="PathCollection_18">
    <g clip-path="url(#p90fbbadad4)">
     <use style="fill:#1f77b4;stroke:#1f77b4;" x="350.50601" xlink:href="#mff2c35acda" y="46.928177"/>
    </g>
   </g>
   <g id="PathCollection_19">
    <g clip-path="url(#p90fbbadad4)">
     <use style="fill:#1f77b4;stroke:#1f77b4;" x="48.570366" xlink:href="#mff2c35acda" y="76.061962"/>
    </g>
   </g>
   <g id="PathCollection_20">
    <g clip-path="url(#p90fbbadad4)">
     <use style="fill:#1f77b4;stroke:#1f77b4;" x="96.453024" xlink:href="#mff2c35acda" y="118.039858"/>
    </g>
   </g>
   <g id="PathCollection_21">
    <g clip-path="url(#p90fbbadad4)">
     <use style="fill:#1f77b4;stroke:#1f77b4;" x="248.741691" xlink:href="#mff2c35acda" y="133.118827"/>
    </g>
   </g>
   <g id="PathCollection_22">
    <defs>
     <path d="M 0 3 
C 0.795609 3 1.55874 2.683901 2.12132 2.12132 
C 2.683901 1.55874 3 0.795609 3 0 
C 3 -0.795609 2.683901 -1.55874 2.12132 -2.12132 
C 1.55874 -2.683901 0.795609 -3 0 -3 
C -0.795609 -3 -1.55874 -2.683901 -2.12132 -2.12132 
C -2.683901 -1.55874 -3 -0.795609 -3 0 
C -3 0.795609 -2.683901 1.55874 -2.12132 2.12132 
C -1.55874 2.683901 -0.795609 3 0 3 
z
" id="m284accb1f0" style="stroke:#ff7f0e;"/>
    </defs>
    <g clip-path="url(#p90fbbadad4)">
     <use style="fill:#ff7f0e;stroke:#ff7f0e;" x="231.406338" xlink:href="#m284accb1f0" y="168.199289"/>
    </g>
   </g>
   <g id="PathCollection_23">
    <defs>
     <path d="M 0 3 
C 0.795609 3 1.55874 2.683901 2.12132 2.12132 
C 2.683901 1.55874 3 0.795609 3 0 
C 3 -0.795609 2.683901 -1.55874 2.12132 -2.12132 
C 1.55874 -2.683901 0.795609 -3 0 -3 
C -0.795609 -3 -1.55874 -2.683901 -2.12132 -2.12132 
C -2.683901 -1.55874 -3 -0.795609 -3 0 
C -3 0.795609 -2.683901 1.55874 -2.12132 2.12132 
C -1.55874 2.683901 -0.795609 3 0 3 
z
" id="m2c8412dd30" style="stroke:#2ca02c;"/>
    </defs>
    <g clip-path="url(#p90fbbadad4)">
     <use style="fill:#2ca02c;stroke:#2ca02c;" x="300.795715" xlink:href="#m2c8412dd30" y="55.090444"/>
    </g>
   </g>
   <g id="PathCollection_24">
    <defs>
     <path d="M 0 3 
C 0.795609 3 1.55874 2.683901 2.12132 2.12132 
C 2.683901 1.55874 3 0.795609 3 0 
C 3 -0.795609 2.683901 -1.55874 2.12132 -2.12132 
C 1.55874 -2.683901 0.795609 -3 0 -3 
C -0.795609 -3 -1.55874 -2.683901 -2.12132 -2.12132 
C -2.683901 -1.55874 -3 -0.795609 -3 0 
C -3 0.795609 -2.683901 1.55874 -2.12132 2.12132 
C -1.55874 2.683901 -0.795609 3 0 3 
z
" id="md1bf8d8ca8" style="stroke:#d62728;"/>
    </defs>
    <g clip-path="url(#p90fbbadad4)">
     <use style="fill:#d62728;stroke:#d62728;" x="330.652799" xlink:href="#md1bf8d8ca8" y="67.143353"/>
    </g>
   </g>
   <g id="PathCollection_25">
    <defs>
     <path d="M 0 3 
C 0.795609 3 1.55874 2.683901 2.12132 2.12132 
C 2.683901 1.55874 3 0.795609 3 0 
C 3 -0.795609 2.683901 -1.55874 2.12132 -2.12132 
C 1.55874 -2.683901 0.795609 -3 0 -3 
C -0.795609 -3 -1.55874 -2.683901 -2.12132 -2.12132 
C -2.683901 -1.55874 -3 -0.795609 -3 0 
C -3 0.795609 -2.683901 1.55874 -2.12132 2.12132 
C -1.55874 2.683901 -0.795609 3 0 3 
z
" id="m6e0507eed4" style="stroke:#9467bd;"/>
    </defs>
    <g clip-path="url(#p90fbbadad4)">
     <use style="fill:#9467bd;stroke:#9467bd;" x="300.795715" xlink:href="#m6e0507eed4" y="55.090444"/>
    </g>
   </g>
   <g id="PathCollection_26">
    <defs>
     <path d="M 0 3 
C 0.795609 3 1.55874 2.683901 2.12132 2.12132 
C 2.683901 1.55874 3 0.795609 3 0 
C 3 -0.795609 2.683901 -1.55874 2.12132 -2.12132 
C 1.55874 -2.683901 0.795609 -3 0 -3 
C -0.795609 -3 -1.55874 -2.683901 -2.12132 -2.12132 
C -2.683901 -1.55874 -3 -0.795609 -3 0 
C -3 0.795609 -2.683901 1.55874 -2.12132 2.12132 
C -1.55874 2.683901 -0.795609 3 0 3 
z
" id="m5b59467a85" style="stroke:#8c564b;"/>
    </defs>
    <g clip-path="url(#p90fbbadad4)">
     <use style="fill:#8c564b;stroke:#8c564b;" x="162.955927" xlink:href="#m5b59467a85" y="224.168109"/>
    </g>
   </g>
   <g id="PathCollection_27">
    <defs>
     <path d="M 0 3 
C 0.795609 3 1.55874 2.683901 2.12132 2.12132 
C 2.683901 1.55874 3 0.795609 3 0 
C 3 -0.795609 2.683901 -1.55874 2.12132 -2.12132 
C 1.55874 -2.683901 0.795609 -3 0 -3 
C -0.795609 -3 -1.55874 -2.683901 -2.12132 -2.12132 
C -2.683901 -1.55874 -3 -0.795609 -3 0 
C -3 0.795609 -2.683901 1.55874 -2.12132 2.12132 
C -1.55874 2.683901 -0.795609 3 0 3 
z
" id="m17508f82b9" style="stroke:#e377c2;"/>
    </defs>
    <g clip-path="url(#p90fbbadad4)">
     <use style="fill:#e377c2;stroke:#e377c2;" x="152.811644" xlink:href="#m17508f82b9" y="220.9973"/>
    </g>
   </g>
   <g id="PathCollection_28">
    <defs>
     <path d="M 0 3 
C 0.795609 3 1.55874 2.683901 2.12132 2.12132 
C 2.683901 1.55874 3 0.795609 3 0 
C 3 -0.795609 2.683901 -1.55874 2.12132 -2.12132 
C 1.55874 -2.683901 0.795609 -3 0 -3 
C -0.795609 -3 -1.55874 -2.683901 -2.12132 -2.12132 
C -2.683901 -1.55874 -3 -0.795609 -3 0 
C -3 0.795609 -2.683901 1.55874 -2.12132 2.12132 
C -1.55874 2.683901 -0.795609 3 0 3 
z
" id="m26a9bb6b5f" style="stroke:#7f7f7f;"/>
    </defs>
    <g clip-path="url(#p90fbbadad4)">
     <use style="fill:#7f7f7f;stroke:#7f7f7f;" x="162.955927" xlink:href="#m26a9bb6b5f" y="224.168109"/>
    </g>
   </g>
   <g id="PathCollection_29">
    <defs>
     <path d="M 0 3 
C 0.795609 3 1.55874 2.683901 2.12132 2.12132 
C 2.683901 1.55874 3 0.795609 3 0 
C 3 -0.795609 2.683901 -1.55874 2.12132 -2.12132 
C 1.55874 -2.683901 0.795609 -3 0 -3 
C -0.795609 -3 -1.55874 -2.683901 -2.12132 -2.12132 
C -2.683901 -1.55874 -3 -0.795609 -3 0 
C -3 0.795609 -2.683901 1.55874 -2.12132 2.12132 
C -1.55874 2.683901 -0.795609 3 0 3 
z
" id="m0567f3ea20" style="stroke:#bcbd22;"/>
    </defs>
    <g clip-path="url(#p90fbbadad4)">
     <use style="fill:#bcbd22;stroke:#bcbd22;" x="282.193503" xlink:href="#m0567f3ea20" y="169.845949"/>
    </g>
   </g>
   <g id="PathCollection_30">
    <defs>
     <path d="M 0 3 
C 0.795609 3 1.55874 2.683901 2.12132 2.12132 
C 2.683901 1.55874 3 0.795609 3 0 
C 3 -0.795609 2.683901 -1.55874 2.12132 -2.12132 
C 1.55874 -2.683901 0.795609 -3 0 -3 
C -0.795609 -3 -1.55874 -2.683901 -2.12132 -2.12132 
C -2.683901 -1.55874 -3 -0.795609 -3 0 
C -3 0.795609 -2.683901 1.55874 -2.12132 2.12132 
C -1.55874 2.683901 -0.795609 3 0 3 
z
" id="m89639e13e3" style="stroke:#17becf;"/>
    </defs>
    <g clip-path="url(#p90fbbadad4)">
     <use style="fill:#17becf;stroke:#17becf;" x="282.193503" xlink:href="#m89639e13e3" y="169.845949"/>
    </g>
   </g>
   <g id="PathCollection_31">
    <g clip-path="url(#p90fbbadad4)">
     <use style="fill:#1f77b4;stroke:#1f77b4;" x="300.863359" xlink:href="#mff2c35acda" y="85.371821"/>
    </g>
   </g>
   <g id="PathCollection_32">
    <g clip-path="url(#p90fbbadad4)">
     <use style="fill:#ff7f0e;stroke:#ff7f0e;" x="297.411352" xlink:href="#m284accb1f0" y="100.990862"/>
    </g>
   </g>
   <g id="PathCollection_33">
    <g clip-path="url(#p90fbbadad4)">
     <use style="fill:#2ca02c;stroke:#2ca02c;" x="248.741691" xlink:href="#m2c8412dd30" y="133.118827"/>
    </g>
   </g>
   <g id="PathCollection_34">
    <g clip-path="url(#p90fbbadad4)">
     <use style="fill:#d62728;stroke:#d62728;" x="152.811644" xlink:href="#md1bf8d8ca8" y="220.9973"/>
    </g>
   </g>
   <g id="PathCollection_35">
    <g clip-path="url(#p90fbbadad4)">
     <use style="fill:#9467bd;stroke:#9467bd;" x="300.863359" xlink:href="#m6e0507eed4" y="85.371821"/>
    </g>
   </g>
   <g id="PathCollection_36">
    <g clip-path="url(#p90fbbadad4)">
     <use style="fill:#8c564b;stroke:#8c564b;" x="231.406338" xlink:href="#m5b59467a85" y="168.199289"/>
    </g>
   </g>
   <g id="PathCollection_37">
    <g clip-path="url(#p90fbbadad4)">
     <use style="fill:#e377c2;stroke:#e377c2;" x="330.652799" xlink:href="#m17508f82b9" y="67.143353"/>
    </g>
   </g>
   <g id="PathCollection_38">
    <g clip-path="url(#p90fbbadad4)">
     <use style="fill:#7f7f7f;stroke:#7f7f7f;" x="297.411352" xlink:href="#m26a9bb6b5f" y="100.990862"/>
    </g>
   </g>
   <g id="matplotlib.axis_1">
    <g id="xtick_1">
     <g id="line2d_1">
      <defs>
       <path d="M 0 0 
L 0 3.5 
" id="m22ad1764ff" style="stroke:#000000;stroke-width:0.8;"/>
      </defs>
      <g>
       <use style="stroke:#000000;stroke-width:0.8;" x="104.339385" xlink:href="#m22ad1764ff" y="273.312"/>
      </g>
     </g>
     <g id="text_1">
      <!-- 0.2 -->
      <defs>
       <path d="M 31.78125 66.40625 
Q 24.171875 66.40625 20.328125 58.90625 
Q 16.5 51.421875 16.5 36.375 
Q 16.5 21.390625 20.328125 13.890625 
Q 24.171875 6.390625 31.78125 6.390625 
Q 39.453125 6.390625 43.28125 13.890625 
Q 47.125 21.390625 47.125 36.375 
Q 47.125 51.421875 43.28125 58.90625 
Q 39.453125 66.40625 31.78125 66.40625 
z
M 31.78125 74.21875 
Q 44.046875 74.21875 50.515625 64.515625 
Q 56.984375 54.828125 56.984375 36.375 
Q 56.984375 17.96875 50.515625 8.265625 
Q 44.046875 -1.421875 31.78125 -1.421875 
Q 19.53125 -1.421875 13.0625 8.265625 
Q 6.59375 17.96875 6.59375 36.375 
Q 6.59375 54.828125 13.0625 64.515625 
Q 19.53125 74.21875 31.78125 74.21875 
z
" id="DejaVuSans-48"/>
       <path d="M 10.6875 12.40625 
L 21 12.40625 
L 21 0 
L 10.6875 0 
z
" id="DejaVuSans-46"/>
       <path d="M 19.1875 8.296875 
L 53.609375 8.296875 
L 53.609375 0 
L 7.328125 0 
L 7.328125 8.296875 
Q 12.9375 14.109375 22.625 23.890625 
Q 32.328125 33.6875 34.8125 36.53125 
Q 39.546875 41.84375 41.421875 45.53125 
Q 43.3125 49.21875 43.3125 52.78125 
Q 43.3125 58.59375 39.234375 62.25 
Q 35.15625 65.921875 28.609375 65.921875 
Q 23.96875 65.921875 18.8125 64.3125 
Q 13.671875 62.703125 7.8125 59.421875 
L 7.8125 69.390625 
Q 13.765625 71.78125 18.9375 73 
Q 24.125 74.21875 28.421875 74.21875 
Q 39.75 74.21875 46.484375 68.546875 
Q 53.21875 62.890625 53.21875 53.421875 
Q 53.21875 48.921875 51.53125 44.890625 
Q 49.859375 40.875 45.40625 35.40625 
Q 44.1875 33.984375 37.640625 27.21875 
Q 31.109375 20.453125 19.1875 8.296875 
z
" id="DejaVuSans-50"/>
      </defs>
      <g transform="translate(96.387823 287.910437)scale(0.1 -0.1)">
       <use xlink:href="#DejaVuSans-48"/>
       <use x="63.623047" xlink:href="#DejaVuSans-46"/>
       <use x="95.410156" xlink:href="#DejaVuSans-50"/>
      </g>
     </g>
    </g>
    <g id="xtick_2">
     <g id="line2d_2">
      <g>
       <use style="stroke:#000000;stroke-width:0.8;" x="182.110064" xlink:href="#m22ad1764ff" y="273.312"/>
      </g>
     </g>
     <g id="text_2">
      <!-- 0.4 -->
      <defs>
       <path d="M 37.796875 64.3125 
L 12.890625 25.390625 
L 37.796875 25.390625 
z
M 35.203125 72.90625 
L 47.609375 72.90625 
L 47.609375 25.390625 
L 58.015625 25.390625 
L 58.015625 17.1875 
L 47.609375 17.1875 
L 47.609375 0 
L 37.796875 0 
L 37.796875 17.1875 
L 4.890625 17.1875 
L 4.890625 26.703125 
z
" id="DejaVuSans-52"/>
      </defs>
      <g transform="translate(174.158501 287.910437)scale(0.1 -0.1)">
       <use xlink:href="#DejaVuSans-48"/>
       <use x="63.623047" xlink:href="#DejaVuSans-46"/>
       <use x="95.410156" xlink:href="#DejaVuSans-52"/>
      </g>
     </g>
    </g>
    <g id="xtick_3">
     <g id="line2d_3">
      <g>
       <use style="stroke:#000000;stroke-width:0.8;" x="259.880742" xlink:href="#m22ad1764ff" y="273.312"/>
      </g>
     </g>
     <g id="text_3">
      <!-- 0.6 -->
      <defs>
       <path d="M 33.015625 40.375 
Q 26.375 40.375 22.484375 35.828125 
Q 18.609375 31.296875 18.609375 23.390625 
Q 18.609375 15.53125 22.484375 10.953125 
Q 26.375 6.390625 33.015625 6.390625 
Q 39.65625 6.390625 43.53125 10.953125 
Q 47.40625 15.53125 47.40625 23.390625 
Q 47.40625 31.296875 43.53125 35.828125 
Q 39.65625 40.375 33.015625 40.375 
z
M 52.59375 71.296875 
L 52.59375 62.3125 
Q 48.875 64.0625 45.09375 64.984375 
Q 41.3125 65.921875 37.59375 65.921875 
Q 27.828125 65.921875 22.671875 59.328125 
Q 17.53125 52.734375 16.796875 39.40625 
Q 19.671875 43.65625 24.015625 45.921875 
Q 28.375 48.1875 33.59375 48.1875 
Q 44.578125 48.1875 50.953125 41.515625 
Q 57.328125 34.859375 57.328125 23.390625 
Q 57.328125 12.15625 50.6875 5.359375 
Q 44.046875 -1.421875 33.015625 -1.421875 
Q 20.359375 -1.421875 13.671875 8.265625 
Q 6.984375 17.96875 6.984375 36.375 
Q 6.984375 53.65625 15.1875 63.9375 
Q 23.390625 74.21875 37.203125 74.21875 
Q 40.921875 74.21875 44.703125 73.484375 
Q 48.484375 72.75 52.59375 71.296875 
z
" id="DejaVuSans-54"/>
      </defs>
      <g transform="translate(251.92918 287.910437)scale(0.1 -0.1)">
       <use xlink:href="#DejaVuSans-48"/>
       <use x="63.623047" xlink:href="#DejaVuSans-46"/>
       <use x="95.410156" xlink:href="#DejaVuSans-54"/>
      </g>
     </g>
    </g>
    <g id="xtick_4">
     <g id="line2d_4">
      <g>
       <use style="stroke:#000000;stroke-width:0.8;" x="337.65142" xlink:href="#m22ad1764ff" y="273.312"/>
      </g>
     </g>
     <g id="text_4">
      <!-- 0.8 -->
      <defs>
       <path d="M 31.78125 34.625 
Q 24.75 34.625 20.71875 30.859375 
Q 16.703125 27.09375 16.703125 20.515625 
Q 16.703125 13.921875 20.71875 10.15625 
Q 24.75 6.390625 31.78125 6.390625 
Q 38.8125 6.390625 42.859375 10.171875 
Q 46.921875 13.96875 46.921875 20.515625 
Q 46.921875 27.09375 42.890625 30.859375 
Q 38.875 34.625 31.78125 34.625 
z
M 21.921875 38.8125 
Q 15.578125 40.375 12.03125 44.71875 
Q 8.5 49.078125 8.5 55.328125 
Q 8.5 64.0625 14.71875 69.140625 
Q 20.953125 74.21875 31.78125 74.21875 
Q 42.671875 74.21875 48.875 69.140625 
Q 55.078125 64.0625 55.078125 55.328125 
Q 55.078125 49.078125 51.53125 44.71875 
Q 48 40.375 41.703125 38.8125 
Q 48.828125 37.15625 52.796875 32.3125 
Q 56.78125 27.484375 56.78125 20.515625 
Q 56.78125 9.90625 50.3125 4.234375 
Q 43.84375 -1.421875 31.78125 -1.421875 
Q 19.734375 -1.421875 13.25 4.234375 
Q 6.78125 9.90625 6.78125 20.515625 
Q 6.78125 27.484375 10.78125 32.3125 
Q 14.796875 37.15625 21.921875 38.8125 
z
M 18.3125 54.390625 
Q 18.3125 48.734375 21.84375 45.5625 
Q 25.390625 42.390625 31.78125 42.390625 
Q 38.140625 42.390625 41.71875 45.5625 
Q 45.3125 48.734375 45.3125 54.390625 
Q 45.3125 60.0625 41.71875 63.234375 
Q 38.140625 66.40625 31.78125 66.40625 
Q 25.390625 66.40625 21.84375 63.234375 
Q 18.3125 60.0625 18.3125 54.390625 
z
" id="DejaVuSans-56"/>
      </defs>
      <g transform="translate(329.699858 287.910437)scale(0.1 -0.1)">
       <use xlink:href="#DejaVuSans-48"/>
       <use x="63.623047" xlink:href="#DejaVuSans-46"/>
       <use x="95.410156" xlink:href="#DejaVuSans-56"/>
      </g>
     </g>
    </g>
   </g>
   <g id="matplotlib.axis_2">
    <g id="ytick_1">
     <g id="line2d_5">
      <defs>
       <path d="M 0 0 
L -3.5 0 
" id="mb7c4582e62" style="stroke:#000000;stroke-width:0.8;"/>
      </defs>
      <g>
       <use style="stroke:#000000;stroke-width:0.8;" x="30.103125" xlink:href="#mb7c4582e62" y="265.125547"/>
      </g>
     </g>
     <g id="text_5">
      <!-- 0.0 -->
      <g transform="translate(7.2 268.924766)scale(0.1 -0.1)">
       <use xlink:href="#DejaVuSans-48"/>
       <use x="63.623047" xlink:href="#DejaVuSans-46"/>
       <use x="95.410156" xlink:href="#DejaVuSans-48"/>
      </g>
     </g>
    </g>
    <g id="ytick_2">
     <g id="line2d_6">
      <g>
       <use style="stroke:#000000;stroke-width:0.8;" x="30.103125" xlink:href="#mb7c4582e62" y="211.778162"/>
      </g>
     </g>
     <g id="text_6">
      <!-- 0.2 -->
      <g transform="translate(7.2 215.57738)scale(0.1 -0.1)">
       <use xlink:href="#DejaVuSans-48"/>
       <use x="63.623047" xlink:href="#DejaVuSans-46"/>
       <use x="95.410156" xlink:href="#DejaVuSans-50"/>
      </g>
     </g>
    </g>
    <g id="ytick_3">
     <g id="line2d_7">
      <g>
       <use style="stroke:#000000;stroke-width:0.8;" x="30.103125" xlink:href="#mb7c4582e62" y="158.430776"/>
      </g>
     </g>
     <g id="text_7">
      <!-- 0.4 -->
      <g transform="translate(7.2 162.229995)scale(0.1 -0.1)">
       <use xlink:href="#DejaVuSans-48"/>
       <use x="63.623047" xlink:href="#DejaVuSans-46"/>
       <use x="95.410156" xlink:href="#DejaVuSans-52"/>
      </g>
     </g>
    </g>
    <g id="ytick_4">
     <g id="line2d_8">
      <g>
       <use style="stroke:#000000;stroke-width:0.8;" x="30.103125" xlink:href="#mb7c4582e62" y="105.083391"/>
      </g>
     </g>
     <g id="text_8">
      <!-- 0.6 -->
      <g transform="translate(7.2 108.88261)scale(0.1 -0.1)">
       <use xlink:href="#DejaVuSans-48"/>
       <use x="63.623047" xlink:href="#DejaVuSans-46"/>
       <use x="95.410156" xlink:href="#DejaVuSans-54"/>
      </g>
     </g>
    </g>
    <g id="ytick_5">
     <g id="line2d_9">
      <g>
       <use style="stroke:#000000;stroke-width:0.8;" x="30.103125" xlink:href="#mb7c4582e62" y="51.736006"/>
      </g>
     </g>
     <g id="text_9">
      <!-- 0.8 -->
      <g transform="translate(7.2 55.535225)scale(0.1 -0.1)">
       <use xlink:href="#DejaVuSans-48"/>
       <use x="63.623047" xlink:href="#DejaVuSans-46"/>
       <use x="95.410156" xlink:href="#DejaVuSans-56"/>
      </g>
     </g>
    </g>
   </g>
   <g id="line2d_10">
    <path clip-path="url(#p90fbbadad4)" d="M 225.250467 180.656536 
L 260.184877 109.961975 
" style="fill:none;stroke:#1f77b4;stroke-linecap:square;stroke-width:1.5;"/>
   </g>
   <g id="line2d_11">
    <path clip-path="url(#p90fbbadad4)" d="M 358.270821 78.292383 
L 256.350783 37.148613 
" style="fill:none;stroke:#1f77b4;stroke-linecap:square;stroke-width:1.5;"/>
   </g>
   <g id="line2d_12">
    <path clip-path="url(#p90fbbadad4)" d="M 230.281737 91.159761 
L 367.853619 20.788979 
" style="fill:none;stroke:#1f77b4;stroke-linecap:square;stroke-width:1.5;"/>
   </g>
   <g id="line2d_13">
    <path clip-path="url(#p90fbbadad4)" d="M 318.403349 257.851773 
L 369.985641 51.197067 
" style="fill:none;stroke:#1f77b4;stroke-linecap:square;stroke-width:1.5;"/>
   </g>
   <g id="line2d_14">
    <path clip-path="url(#p90fbbadad4)" d="M 198.610447 235.312678 
L 79.305887 198.021531 
" style="fill:none;stroke:#1f77b4;stroke-linecap:square;stroke-width:1.5;"/>
   </g>
   <g id="line2d_15">
    <path clip-path="url(#p90fbbadad4)" d="M 323.740131 150.918169 
L 154.676183 227.940188 
" style="fill:none;stroke:#1f77b4;stroke-linecap:square;stroke-width:1.5;"/>
   </g>
   <g id="line2d_16">
    <path clip-path="url(#p90fbbadad4)" d="M 302.459425 78.150219 
L 262.585905 258.563006 
" style="fill:none;stroke:#1f77b4;stroke-linecap:square;stroke-width:1.5;"/>
   </g>
   <g id="line2d_17">
    <path clip-path="url(#p90fbbadad4)" d="M 311.192579 75.909551 
L 111.359987 258.969847 
" style="fill:none;stroke:#1f77b4;stroke-linecap:square;stroke-width:1.5;"/>
   </g>
   <g id="line2d_18">
    <path clip-path="url(#p90fbbadad4)" d="M 195.221424 205.04393 
L 350.50601 46.928177 
" style="fill:none;stroke:#1f77b4;stroke-linecap:square;stroke-width:1.5;"/>
   </g>
   <g id="line2d_19">
    <path clip-path="url(#p90fbbadad4)" d="M 48.570366 76.061962 
L 96.453024 118.039858 
" style="fill:none;stroke:#1f77b4;stroke-linecap:square;stroke-width:1.5;"/>
   </g>
   <g id="patch_3">
    <path d="M 30.103125 273.312 
L 30.103125 7.2 
" style="fill:none;stroke:#000000;stroke-linecap:square;stroke-linejoin:miter;stroke-width:0.8;"/>
   </g>
   <g id="patch_4">
    <path d="M 387.223125 273.312 
L 387.223125 7.2 
" style="fill:none;stroke:#000000;stroke-linecap:square;stroke-linejoin:miter;stroke-width:0.8;"/>
   </g>
   <g id="patch_5">
    <path d="M 30.103125 273.312 
L 387.223125 273.312 
" style="fill:none;stroke:#000000;stroke-linecap:square;stroke-linejoin:miter;stroke-width:0.8;"/>
   </g>
   <g id="patch_6">
    <path d="M 30.103125 7.2 
L 387.223125 7.2 
" style="fill:none;stroke:#000000;stroke-linecap:square;stroke-linejoin:miter;stroke-width:0.8;"/>
   </g>
  </g>
 </g>
 <defs>
  <clipPath id="p90fbbadad4">
   <rect height="266.112" width="357.12" x="30.103125" y="7.2"/>
  </clipPath>
 </defs>
</svg>
