<?xml version="1.0" encoding="utf-8" standalone="no"?>
<!DOCTYPE svg PUBLIC "-//W3C//DTD SVG 1.1//EN"
  "http://www.w3.org/Graphics/SVG/1.1/DTD/svg11.dtd">
<!-- Created with matplotlib (https://matplotlib.org/) -->
<svg height="297.190125pt" version="1.1" viewBox="0 0 394.423125 297.190125" width="394.423125pt" xmlns="http://www.w3.org/2000/svg" xmlns:xlink="http://www.w3.org/1999/xlink">
 <defs>
  <style type="text/css">
*{stroke-linecap:butt;stroke-linejoin:round;}
  </style>
 </defs>
 <g id="figure_1">
  <g id="patch_1">
   <path d="M 0 297.190125 
L 394.423125 297.190125 
L 394.423125 0 
L 0 0 
z
" style="fill:#ffffff;"/>
  </g>
  <g id="axes_1">
   <g id="patch_2">
    <path d="M 30.103125 273.312 
L 387.223125 273.312 
L 387.223125 7.2 
L 30.103125 7.2 
z
" style="fill:#ffffff;"/>
   </g>
   <g id="PathCollection_1">
    <defs>
     <path d="M 0 3 
C 0.795609 3 1.55874 2.683901 2.12132 2.12132 
C 2.683901 1.55874 3 0.795609 3 0 
C 3 -0.795609 2.683901 -1.55874 2.12132 -2.12132 
C 1.55874 -2.683901 0.795609 -3 0 -3 
C -0.795609 -3 -1.55874 -2.683901 -2.12132 -2.12132 
C -2.683901 -1.55874 -3 -0.795609 -3 0 
C -3 0.795609 -2.683901 1.55874 -2.12132 2.12132 
C -1.55874 2.683901 -0.795609 3 0 3 
z
" id="m040a6c367a" style="stroke:#1f77b4;"/>
    </defs>
    <g clip-path="url(#p5d12d59c41)">
     <use style="fill:#1f77b4;stroke:#1f77b4;" x="48.378951" xlink:href="#m040a6c367a" y="95.0873"/>
    </g>
   </g>
   <g id="PathCollection_2">
    <g clip-path="url(#p5d12d59c41)">
     <use style="fill:#1f77b4;stroke:#1f77b4;" x="343.179534" xlink:href="#m040a6c367a" y="184.190649"/>
    </g>
   </g>
   <g id="PathCollection_3">
    <g clip-path="url(#p5d12d59c41)">
     <use style="fill:#1f77b4;stroke:#1f77b4;" x="285.567797" xlink:href="#m040a6c367a" y="178.129758"/>
    </g>
   </g>
   <g id="PathCollection_4">
    <g clip-path="url(#p5d12d59c41)">
     <use style="fill:#1f77b4;stroke:#1f77b4;" x="77.324153" xlink:href="#m040a6c367a" y="259.307566"/>
    </g>
   </g>
   <g id="PathCollection_5">
    <g clip-path="url(#p5d12d59c41)">
     <use style="fill:#1f77b4;stroke:#1f77b4;" x="233.251601" xlink:href="#m040a6c367a" y="118.84417"/>
    </g>
   </g>
   <g id="PathCollection_6">
    <g clip-path="url(#p5d12d59c41)">
     <use style="fill:#1f77b4;stroke:#1f77b4;" x="322.301301" xlink:href="#m040a6c367a" y="47.590834"/>
    </g>
   </g>
   <g id="PathCollection_7">
    <g clip-path="url(#p5d12d59c41)">
     <use style="fill:#1f77b4;stroke:#1f77b4;" x="114.297729" xlink:href="#m040a6c367a" y="106.68744"/>
    </g>
   </g>
   <g id="PathCollection_8">
    <g clip-path="url(#p5d12d59c41)">
     <use style="fill:#1f77b4;stroke:#1f77b4;" x="322.875091" xlink:href="#m040a6c367a" y="243.829485"/>
    </g>
   </g>
   <g id="PathCollection_9">
    <g clip-path="url(#p5d12d59c41)">
     <use style="fill:#1f77b4;stroke:#1f77b4;" x="276.414565" xlink:href="#m040a6c367a" y="107.656832"/>
    </g>
   </g>
   <g id="PathCollection_10">
    <g clip-path="url(#p5d12d59c41)">
     <use style="fill:#1f77b4;stroke:#1f77b4;" x="217.03801" xlink:href="#m040a6c367a" y="91.160754"/>
    </g>
   </g>
   <g id="PathCollection_11">
    <g clip-path="url(#p5d12d59c41)">
     <use style="fill:#1f77b4;stroke:#1f77b4;" x="331.383786" xlink:href="#m040a6c367a" y="141.878338"/>
    </g>
   </g>
   <g id="PathCollection_12">
    <g clip-path="url(#p5d12d59c41)">
     <use style="fill:#1f77b4;stroke:#1f77b4;" x="368.755884" xlink:href="#m040a6c367a" y="109.184915"/>
    </g>
   </g>
   <g id="PathCollection_13">
    <g clip-path="url(#p5d12d59c41)">
     <use style="fill:#1f77b4;stroke:#1f77b4;" x="93.698481" xlink:href="#m040a6c367a" y="259.214185"/>
    </g>
   </g>
   <g id="PathCollection_14">
    <g clip-path="url(#p5d12d59c41)">
     <use style="fill:#1f77b4;stroke:#1f77b4;" x="236.229707" xlink:href="#m040a6c367a" y="104.101982"/>
    </g>
   </g>
   <g id="PathCollection_15">
    <g clip-path="url(#p5d12d59c41)">
     <use style="fill:#1f77b4;stroke:#1f77b4;" x="77.078637" xlink:href="#m040a6c367a" y="247.749828"/>
    </g>
   </g>
   <g id="PathCollection_16">
    <g clip-path="url(#p5d12d59c41)">
     <use style="fill:#1f77b4;stroke:#1f77b4;" x="346.367265" xlink:href="#m040a6c367a" y="118.215942"/>
    </g>
   </g>
   <g id="PathCollection_17">
    <g clip-path="url(#p5d12d59c41)">
     <use style="fill:#1f77b4;stroke:#1f77b4;" x="212.399711" xlink:href="#m040a6c367a" y="30.831549"/>
    </g>
   </g>
   <g id="PathCollection_18">
    <g clip-path="url(#p5d12d59c41)">
     <use style="fill:#1f77b4;stroke:#1f77b4;" x="311.821937" xlink:href="#m040a6c367a" y="21.525266"/>
    </g>
   </g>
   <g id="PathCollection_19">
    <g clip-path="url(#p5d12d59c41)">
     <use style="fill:#1f77b4;stroke:#1f77b4;" x="350.389078" xlink:href="#m040a6c367a" y="113.351157"/>
    </g>
   </g>
   <g id="PathCollection_20">
    <g clip-path="url(#p5d12d59c41)">
     <use style="fill:#1f77b4;stroke:#1f77b4;" x="263.586675" xlink:href="#m040a6c367a" y="24.086176"/>
    </g>
   </g>
   <g id="PathCollection_21">
    <g clip-path="url(#p5d12d59c41)">
     <use style="fill:#1f77b4;stroke:#1f77b4;" x="137.727706" xlink:href="#m040a6c367a" y="122.092923"/>
    </g>
   </g>
   <g id="PathCollection_22">
    <defs>
     <path d="M 0 3 
C 0.795609 3 1.55874 2.683901 2.12132 2.12132 
C 2.683901 1.55874 3 0.795609 3 0 
C 3 -0.795609 2.683901 -1.55874 2.12132 -2.12132 
C 1.55874 -2.683901 0.795609 -3 0 -3 
C -0.795609 -3 -1.55874 -2.683901 -2.12132 -2.12132 
C -2.683901 -1.55874 -3 -0.795609 -3 0 
C -3 0.795609 -2.683901 1.55874 -2.12132 2.12132 
C -1.55874 2.683901 -0.795609 3 0 3 
z
" id="mcf65167a0f" style="stroke:#ff7f0e;"/>
    </defs>
    <g clip-path="url(#p5d12d59c41)">
     <use style="fill:#ff7f0e;stroke:#ff7f0e;" x="201.88054" xlink:href="#mcf65167a0f" y="141.483089"/>
    </g>
   </g>
   <g id="PathCollection_23">
    <defs>
     <path d="M 0 3 
C 0.795609 3 1.55874 2.683901 2.12132 2.12132 
C 2.683901 1.55874 3 0.795609 3 0 
C 3 -0.795609 2.683901 -1.55874 2.12132 -2.12132 
C 1.55874 -2.683901 0.795609 -3 0 -3 
C -0.795609 -3 -1.55874 -2.683901 -2.12132 -2.12132 
C -2.683901 -1.55874 -3 -0.795609 -3 0 
C -3 0.795609 -2.683901 1.55874 -2.12132 2.12132 
C -1.55874 2.683901 -0.795609 3 0 3 
z
" id="me96449ee51" style="stroke:#2ca02c;"/>
    </defs>
    <g clip-path="url(#p5d12d59c41)">
     <use style="fill:#2ca02c;stroke:#2ca02c;" x="260.907562" xlink:href="#me96449ee51" y="159.323981"/>
    </g>
   </g>
   <g id="PathCollection_24">
    <defs>
     <path d="M 0 3 
C 0.795609 3 1.55874 2.683901 2.12132 2.12132 
C 2.683901 1.55874 3 0.795609 3 0 
C 3 -0.795609 2.683901 -1.55874 2.12132 -2.12132 
C 1.55874 -2.683901 0.795609 -3 0 -3 
C -0.795609 -3 -1.55874 -2.683901 -2.12132 -2.12132 
C -2.683901 -1.55874 -3 -0.795609 -3 0 
C -3 0.795609 -2.683901 1.55874 -2.12132 2.12132 
C -1.55874 2.683901 -0.795609 3 0 3 
z
" id="m57818f9da3" style="stroke:#d62728;"/>
    </defs>
    <g clip-path="url(#p5d12d59c41)">
     <use style="fill:#d62728;stroke:#d62728;" x="246.258667" xlink:href="#m57818f9da3" y="193.453294"/>
    </g>
   </g>
   <g id="PathCollection_25">
    <defs>
     <path d="M 0 3 
C 0.795609 3 1.55874 2.683901 2.12132 2.12132 
C 2.683901 1.55874 3 0.795609 3 0 
C 3 -0.795609 2.683901 -1.55874 2.12132 -2.12132 
C 1.55874 -2.683901 0.795609 -3 0 -3 
C -0.795609 -3 -1.55874 -2.683901 -2.12132 -2.12132 
C -2.683901 -1.55874 -3 -0.795609 -3 0 
C -3 0.795609 -2.683901 1.55874 -2.12132 2.12132 
C -1.55874 2.683901 -0.795609 3 0 3 
z
" id="mfc8a93cb76" style="stroke:#9467bd;"/>
    </defs>
    <g clip-path="url(#p5d12d59c41)">
     <use style="fill:#9467bd;stroke:#9467bd;" x="102.70372" xlink:href="#mfc8a93cb76" y="249.41407"/>
    </g>
   </g>
   <g id="PathCollection_26">
    <defs>
     <path d="M 0 3 
C 0.795609 3 1.55874 2.683901 2.12132 2.12132 
C 2.683901 1.55874 3 0.795609 3 0 
C 3 -0.795609 2.683901 -1.55874 2.12132 -2.12132 
C 1.55874 -2.683901 0.795609 -3 0 -3 
C -0.795609 -3 -1.55874 -2.683901 -2.12132 -2.12132 
C -2.683901 -1.55874 -3 -0.795609 -3 0 
C -3 0.795609 -2.683901 1.55874 -2.12132 2.12132 
C -1.55874 2.683901 -0.795609 3 0 3 
z
" id="mcd2d9d9dc8" style="stroke:#8c564b;"/>
    </defs>
    <g clip-path="url(#p5d12d59c41)">
     <use style="fill:#8c564b;stroke:#8c564b;" x="254.753916" xlink:href="#mcd2d9d9dc8" y="101.63904"/>
    </g>
   </g>
   <g id="PathCollection_27">
    <defs>
     <path d="M 0 3 
C 0.795609 3 1.55874 2.683901 2.12132 2.12132 
C 2.683901 1.55874 3 0.795609 3 0 
C 3 -0.795609 2.683901 -1.55874 2.12132 -2.12132 
C 1.55874 -2.683901 0.795609 -3 0 -3 
C -0.795609 -3 -1.55874 -2.683901 -2.12132 -2.12132 
C -2.683901 -1.55874 -3 -0.795609 -3 0 
C -3 0.795609 -2.683901 1.55874 -2.12132 2.12132 
C -1.55874 2.683901 -0.795609 3 0 3 
z
" id="mecaecdc5c1" style="stroke:#e377c2;"/>
    </defs>
    <g clip-path="url(#p5d12d59c41)">
     <use style="fill:#e377c2;stroke:#e377c2;" x="302.134363" xlink:href="#mecaecdc5c1" y="63.727459"/>
    </g>
   </g>
   <g id="PathCollection_28">
    <defs>
     <path d="M 0 3 
C 0.795609 3 1.55874 2.683901 2.12132 2.12132 
C 2.683901 1.55874 3 0.795609 3 0 
C 3 -0.795609 2.683901 -1.55874 2.12132 -2.12132 
C 1.55874 -2.683901 0.795609 -3 0 -3 
C -0.795609 -3 -1.55874 -2.683901 -2.12132 -2.12132 
C -2.683901 -1.55874 -3 -0.795609 -3 0 
C -3 0.795609 -2.683901 1.55874 -2.12132 2.12132 
C -1.55874 2.683901 -0.795609 3 0 3 
z
" id="mc39e8e5ced" style="stroke:#7f7f7f;"/>
    </defs>
    <g clip-path="url(#p5d12d59c41)">
     <use style="fill:#7f7f7f;stroke:#7f7f7f;" x="137.727706" xlink:href="#mc39e8e5ced" y="122.092923"/>
    </g>
   </g>
   <g id="PathCollection_29">
    <defs>
     <path d="M 0 3 
C 0.795609 3 1.55874 2.683901 2.12132 2.12132 
C 2.683901 1.55874 3 0.795609 3 0 
C 3 -0.795609 2.683901 -1.55874 2.12132 -2.12132 
C 1.55874 -2.683901 0.795609 -3 0 -3 
C -0.795609 -3 -1.55874 -2.683901 -2.12132 -2.12132 
C -2.683901 -1.55874 -3 -0.795609 -3 0 
C -3 0.795609 -2.683901 1.55874 -2.12132 2.12132 
C -1.55874 2.683901 -0.795609 3 0 3 
z
" id="ma1fb225e9d" style="stroke:#bcbd22;"/>
    </defs>
    <g clip-path="url(#p5d12d59c41)">
     <use style="fill:#bcbd22;stroke:#bcbd22;" x="246.258667" xlink:href="#ma1fb225e9d" y="193.453294"/>
    </g>
   </g>
   <g id="PathCollection_30">
    <defs>
     <path d="M 0 3 
C 0.795609 3 1.55874 2.683901 2.12132 2.12132 
C 2.683901 1.55874 3 0.795609 3 0 
C 3 -0.795609 2.683901 -1.55874 2.12132 -2.12132 
C 1.55874 -2.683901 0.795609 -3 0 -3 
C -0.795609 -3 -1.55874 -2.683901 -2.12132 -2.12132 
C -2.683901 -1.55874 -3 -0.795609 -3 0 
C -3 0.795609 -2.683901 1.55874 -2.12132 2.12132 
C -1.55874 2.683901 -0.795609 3 0 3 
z
" id="md8bb5c0532" style="stroke:#17becf;"/>
    </defs>
    <g clip-path="url(#p5d12d59c41)">
     <use style="fill:#17becf;stroke:#17becf;" x="188.82559" xlink:href="#md8bb5c0532" y="155.690376"/>
    </g>
   </g>
   <g id="PathCollection_31">
    <g clip-path="url(#p5d12d59c41)">
     <use style="fill:#1f77b4;stroke:#1f77b4;" x="222.471181" xlink:href="#m040a6c367a" y="177.812745"/>
    </g>
   </g>
   <g id="PathCollection_32">
    <g clip-path="url(#p5d12d59c41)">
     <use style="fill:#ff7f0e;stroke:#ff7f0e;" x="254.753916" xlink:href="#mcf65167a0f" y="101.63904"/>
    </g>
   </g>
   <g id="PathCollection_33">
    <g clip-path="url(#p5d12d59c41)">
     <use style="fill:#2ca02c;stroke:#2ca02c;" x="201.88054" xlink:href="#me96449ee51" y="141.483089"/>
    </g>
   </g>
   <g id="PathCollection_34">
    <g clip-path="url(#p5d12d59c41)">
     <use style="fill:#d62728;stroke:#d62728;" x="102.70372" xlink:href="#m57818f9da3" y="249.41407"/>
    </g>
   </g>
   <g id="PathCollection_35">
    <g clip-path="url(#p5d12d59c41)">
     <use style="fill:#9467bd;stroke:#9467bd;" x="188.82559" xlink:href="#mfc8a93cb76" y="155.690376"/>
    </g>
   </g>
   <g id="PathCollection_36">
    <g clip-path="url(#p5d12d59c41)">
     <use style="fill:#8c564b;stroke:#8c564b;" x="125.742965" xlink:href="#mcd2d9d9dc8" y="224.341191"/>
    </g>
   </g>
   <g id="PathCollection_37">
    <g clip-path="url(#p5d12d59c41)">
     <use style="fill:#e377c2;stroke:#e377c2;" x="260.907562" xlink:href="#mecaecdc5c1" y="159.323981"/>
    </g>
   </g>
   <g id="PathCollection_38">
    <g clip-path="url(#p5d12d59c41)">
     <use style="fill:#7f7f7f;stroke:#7f7f7f;" x="222.471181" xlink:href="#mc39e8e5ced" y="177.812745"/>
    </g>
   </g>
   <g id="PathCollection_39">
    <g clip-path="url(#p5d12d59c41)">
     <use style="fill:#bcbd22;stroke:#bcbd22;" x="125.742965" xlink:href="#ma1fb225e9d" y="224.341191"/>
    </g>
   </g>
   <g id="PathCollection_40">
    <g clip-path="url(#p5d12d59c41)">
     <use style="fill:#17becf;stroke:#17becf;" x="265.328327" xlink:href="#md8bb5c0532" y="25.877238"/>
    </g>
   </g>
   <g id="PathCollection_41">
    <g clip-path="url(#p5d12d59c41)">
     <use style="fill:#1f77b4;stroke:#1f77b4;" x="302.134363" xlink:href="#m040a6c367a" y="63.727459"/>
    </g>
   </g>
   <g id="PathCollection_42">
    <g clip-path="url(#p5d12d59c41)">
     <use style="fill:#ff7f0e;stroke:#ff7f0e;" x="265.328327" xlink:href="#mcf65167a0f" y="25.877238"/>
    </g>
   </g>
   <g id="matplotlib.axis_1">
    <g id="xtick_1">
     <g id="line2d_1">
      <defs>
       <path d="M 0 0 
L 0 3.5 
" id="mf6484073d6" style="stroke:#000000;stroke-width:0.8;"/>
      </defs>
      <g>
       <use style="stroke:#000000;stroke-width:0.8;" x="38.211237" xlink:href="#mf6484073d6" y="273.312"/>
      </g>
     </g>
     <g id="text_1">
      <!-- 0.0 -->
      <defs>
       <path d="M 31.78125 66.40625 
Q 24.171875 66.40625 20.328125 58.90625 
Q 16.5 51.421875 16.5 36.375 
Q 16.5 21.390625 20.328125 13.890625 
Q 24.171875 6.390625 31.78125 6.390625 
Q 39.453125 6.390625 43.28125 13.890625 
Q 47.125 21.390625 47.125 36.375 
Q 47.125 51.421875 43.28125 58.90625 
Q 39.453125 66.40625 31.78125 66.40625 
z
M 31.78125 74.21875 
Q 44.046875 74.21875 50.515625 64.515625 
Q 56.984375 54.828125 56.984375 36.375 
Q 56.984375 17.96875 50.515625 8.265625 
Q 44.046875 -1.421875 31.78125 -1.421875 
Q 19.53125 -1.421875 13.0625 8.265625 
Q 6.59375 17.96875 6.59375 36.375 
Q 6.59375 54.828125 13.0625 64.515625 
Q 19.53125 74.21875 31.78125 74.21875 
z
" id="DejaVuSans-48"/>
       <path d="M 10.6875 12.40625 
L 21 12.40625 
L 21 0 
L 10.6875 0 
z
" id="DejaVuSans-46"/>
      </defs>
      <g transform="translate(30.259675 287.910437)scale(0.1 -0.1)">
       <use xlink:href="#DejaVuSans-48"/>
       <use x="63.623047" xlink:href="#DejaVuSans-46"/>
       <use x="95.410156" xlink:href="#DejaVuSans-48"/>
      </g>
     </g>
    </g>
    <g id="xtick_2">
     <g id="line2d_2">
      <g>
       <use style="stroke:#000000;stroke-width:0.8;" x="108.503744" xlink:href="#mf6484073d6" y="273.312"/>
      </g>
     </g>
     <g id="text_2">
      <!-- 0.2 -->
      <defs>
       <path d="M 19.1875 8.296875 
L 53.609375 8.296875 
L 53.609375 0 
L 7.328125 0 
L 7.328125 8.296875 
Q 12.9375 14.109375 22.625 23.890625 
Q 32.328125 33.6875 34.8125 36.53125 
Q 39.546875 41.84375 41.421875 45.53125 
Q 43.3125 49.21875 43.3125 52.78125 
Q 43.3125 58.59375 39.234375 62.25 
Q 35.15625 65.921875 28.609375 65.921875 
Q 23.96875 65.921875 18.8125 64.3125 
Q 13.671875 62.703125 7.8125 59.421875 
L 7.8125 69.390625 
Q 13.765625 71.78125 18.9375 73 
Q 24.125 74.21875 28.421875 74.21875 
Q 39.75 74.21875 46.484375 68.546875 
Q 53.21875 62.890625 53.21875 53.421875 
Q 53.21875 48.921875 51.53125 44.890625 
Q 49.859375 40.875 45.40625 35.40625 
Q 44.1875 33.984375 37.640625 27.21875 
Q 31.109375 20.453125 19.1875 8.296875 
z
" id="DejaVuSans-50"/>
      </defs>
      <g transform="translate(100.552182 287.910437)scale(0.1 -0.1)">
       <use xlink:href="#DejaVuSans-48"/>
       <use x="63.623047" xlink:href="#DejaVuSans-46"/>
       <use x="95.410156" xlink:href="#DejaVuSans-50"/>
      </g>
     </g>
    </g>
    <g id="xtick_3">
     <g id="line2d_3">
      <g>
       <use style="stroke:#000000;stroke-width:0.8;" x="178.796251" xlink:href="#mf6484073d6" y="273.312"/>
      </g>
     </g>
     <g id="text_3">
      <!-- 0.4 -->
      <defs>
       <path d="M 37.796875 64.3125 
L 12.890625 25.390625 
L 37.796875 25.390625 
z
M 35.203125 72.90625 
L 47.609375 72.90625 
L 47.609375 25.390625 
L 58.015625 25.390625 
L 58.015625 17.1875 
L 47.609375 17.1875 
L 47.609375 0 
L 37.796875 0 
L 37.796875 17.1875 
L 4.890625 17.1875 
L 4.890625 26.703125 
z
" id="DejaVuSans-52"/>
      </defs>
      <g transform="translate(170.844688 287.910437)scale(0.1 -0.1)">
       <use xlink:href="#DejaVuSans-48"/>
       <use x="63.623047" xlink:href="#DejaVuSans-46"/>
       <use x="95.410156" xlink:href="#DejaVuSans-52"/>
      </g>
     </g>
    </g>
    <g id="xtick_4">
     <g id="line2d_4">
      <g>
       <use style="stroke:#000000;stroke-width:0.8;" x="249.088758" xlink:href="#mf6484073d6" y="273.312"/>
      </g>
     </g>
     <g id="text_4">
      <!-- 0.6 -->
      <defs>
       <path d="M 33.015625 40.375 
Q 26.375 40.375 22.484375 35.828125 
Q 18.609375 31.296875 18.609375 23.390625 
Q 18.609375 15.53125 22.484375 10.953125 
Q 26.375 6.390625 33.015625 6.390625 
Q 39.65625 6.390625 43.53125 10.953125 
Q 47.40625 15.53125 47.40625 23.390625 
Q 47.40625 31.296875 43.53125 35.828125 
Q 39.65625 40.375 33.015625 40.375 
z
M 52.59375 71.296875 
L 52.59375 62.3125 
Q 48.875 64.0625 45.09375 64.984375 
Q 41.3125 65.921875 37.59375 65.921875 
Q 27.828125 65.921875 22.671875 59.328125 
Q 17.53125 52.734375 16.796875 39.40625 
Q 19.671875 43.65625 24.015625 45.921875 
Q 28.375 48.1875 33.59375 48.1875 
Q 44.578125 48.1875 50.953125 41.515625 
Q 57.328125 34.859375 57.328125 23.390625 
Q 57.328125 12.15625 50.6875 5.359375 
Q 44.046875 -1.421875 33.015625 -1.421875 
Q 20.359375 -1.421875 13.671875 8.265625 
Q 6.984375 17.96875 6.984375 36.375 
Q 6.984375 53.65625 15.1875 63.9375 
Q 23.390625 74.21875 37.203125 74.21875 
Q 40.921875 74.21875 44.703125 73.484375 
Q 48.484375 72.75 52.59375 71.296875 
z
" id="DejaVuSans-54"/>
      </defs>
      <g transform="translate(241.137195 287.910437)scale(0.1 -0.1)">
       <use xlink:href="#DejaVuSans-48"/>
       <use x="63.623047" xlink:href="#DejaVuSans-46"/>
       <use x="95.410156" xlink:href="#DejaVuSans-54"/>
      </g>
     </g>
    </g>
    <g id="xtick_5">
     <g id="line2d_5">
      <g>
       <use style="stroke:#000000;stroke-width:0.8;" x="319.381264" xlink:href="#mf6484073d6" y="273.312"/>
      </g>
     </g>
     <g id="text_5">
      <!-- 0.8 -->
      <defs>
       <path d="M 31.78125 34.625 
Q 24.75 34.625 20.71875 30.859375 
Q 16.703125 27.09375 16.703125 20.515625 
Q 16.703125 13.921875 20.71875 10.15625 
Q 24.75 6.390625 31.78125 6.390625 
Q 38.8125 6.390625 42.859375 10.171875 
Q 46.921875 13.96875 46.921875 20.515625 
Q 46.921875 27.09375 42.890625 30.859375 
Q 38.875 34.625 31.78125 34.625 
z
M 21.921875 38.8125 
Q 15.578125 40.375 12.03125 44.71875 
Q 8.5 49.078125 8.5 55.328125 
Q 8.5 64.0625 14.71875 69.140625 
Q 20.953125 74.21875 31.78125 74.21875 
Q 42.671875 74.21875 48.875 69.140625 
Q 55.078125 64.0625 55.078125 55.328125 
Q 55.078125 49.078125 51.53125 44.71875 
Q 48 40.375 41.703125 38.8125 
Q 48.828125 37.15625 52.796875 32.3125 
Q 56.78125 27.484375 56.78125 20.515625 
Q 56.78125 9.90625 50.3125 4.234375 
Q 43.84375 -1.421875 31.78125 -1.421875 
Q 19.734375 -1.421875 13.25 4.234375 
Q 6.78125 9.90625 6.78125 20.515625 
Q 6.78125 27.484375 10.78125 32.3125 
Q 14.796875 37.15625 21.921875 38.8125 
z
M 18.3125 54.390625 
Q 18.3125 48.734375 21.84375 45.5625 
Q 25.390625 42.390625 31.78125 42.390625 
Q 38.140625 42.390625 41.71875 45.5625 
Q 45.3125 48.734375 45.3125 54.390625 
Q 45.3125 60.0625 41.71875 63.234375 
Q 38.140625 66.40625 31.78125 66.40625 
Q 25.390625 66.40625 21.84375 63.234375 
Q 18.3125 60.0625 18.3125 54.390625 
z
" id="DejaVuSans-56"/>
      </defs>
      <g transform="translate(311.429702 287.910437)scale(0.1 -0.1)">
       <use xlink:href="#DejaVuSans-48"/>
       <use x="63.623047" xlink:href="#DejaVuSans-46"/>
       <use x="95.410156" xlink:href="#DejaVuSans-56"/>
      </g>
     </g>
    </g>
   </g>
   <g id="matplotlib.axis_2">
    <g id="ytick_1">
     <g id="line2d_6">
      <defs>
       <path d="M 0 0 
L -3.5 0 
" id="mb14d70464f" style="stroke:#000000;stroke-width:0.8;"/>
      </defs>
      <g>
       <use style="stroke:#000000;stroke-width:0.8;" x="30.103125" xlink:href="#mb14d70464f" y="221.560944"/>
      </g>
     </g>
     <g id="text_6">
      <!-- 0.2 -->
      <g transform="translate(7.2 225.360163)scale(0.1 -0.1)">
       <use xlink:href="#DejaVuSans-48"/>
       <use x="63.623047" xlink:href="#DejaVuSans-46"/>
       <use x="95.410156" xlink:href="#DejaVuSans-50"/>
      </g>
     </g>
    </g>
    <g id="ytick_2">
     <g id="line2d_7">
      <g>
       <use style="stroke:#000000;stroke-width:0.8;" x="30.103125" xlink:href="#mb14d70464f" y="169.808291"/>
      </g>
     </g>
     <g id="text_7">
      <!-- 0.4 -->
      <g transform="translate(7.2 173.607509)scale(0.1 -0.1)">
       <use xlink:href="#DejaVuSans-48"/>
       <use x="63.623047" xlink:href="#DejaVuSans-46"/>
       <use x="95.410156" xlink:href="#DejaVuSans-52"/>
      </g>
     </g>
    </g>
    <g id="ytick_3">
     <g id="line2d_8">
      <g>
       <use style="stroke:#000000;stroke-width:0.8;" x="30.103125" xlink:href="#mb14d70464f" y="118.055637"/>
      </g>
     </g>
     <g id="text_8">
      <!-- 0.6 -->
      <g transform="translate(7.2 121.854856)scale(0.1 -0.1)">
       <use xlink:href="#DejaVuSans-48"/>
       <use x="63.623047" xlink:href="#DejaVuSans-46"/>
       <use x="95.410156" xlink:href="#DejaVuSans-54"/>
      </g>
     </g>
    </g>
    <g id="ytick_4">
     <g id="line2d_9">
      <g>
       <use style="stroke:#000000;stroke-width:0.8;" x="30.103125" xlink:href="#mb14d70464f" y="66.302983"/>
      </g>
     </g>
     <g id="text_9">
      <!-- 0.8 -->
      <g transform="translate(7.2 70.102202)scale(0.1 -0.1)">
       <use xlink:href="#DejaVuSans-48"/>
       <use x="63.623047" xlink:href="#DejaVuSans-46"/>
       <use x="95.410156" xlink:href="#DejaVuSans-56"/>
      </g>
     </g>
    </g>
    <g id="ytick_5">
     <g id="line2d_10">
      <g>
       <use style="stroke:#000000;stroke-width:0.8;" x="30.103125" xlink:href="#mb14d70464f" y="14.55033"/>
      </g>
     </g>
     <g id="text_10">
      <!-- 1.0 -->
      <defs>
       <path d="M 12.40625 8.296875 
L 28.515625 8.296875 
L 28.515625 63.921875 
L 10.984375 60.40625 
L 10.984375 69.390625 
L 28.421875 72.90625 
L 38.28125 72.90625 
L 38.28125 8.296875 
L 54.390625 8.296875 
L 54.390625 0 
L 12.40625 0 
z
" id="DejaVuSans-49"/>
      </defs>
      <g transform="translate(7.2 18.349549)scale(0.1 -0.1)">
       <use xlink:href="#DejaVuSans-49"/>
       <use x="63.623047" xlink:href="#DejaVuSans-46"/>
       <use x="95.410156" xlink:href="#DejaVuSans-48"/>
      </g>
     </g>
    </g>
   </g>
   <g id="line2d_11">
    <path clip-path="url(#p5d12d59c41)" d="M 48.378951 95.0873 
L 343.179534 184.190649 
" style="fill:none;stroke:#1f77b4;stroke-linecap:square;stroke-width:1.5;"/>
   </g>
   <g id="line2d_12">
    <path clip-path="url(#p5d12d59c41)" d="M 285.567797 178.129758 
L 77.324153 259.307566 
" style="fill:none;stroke:#1f77b4;stroke-linecap:square;stroke-width:1.5;"/>
   </g>
   <g id="line2d_13">
    <path clip-path="url(#p5d12d59c41)" d="M 233.251601 118.84417 
L 322.301301 47.590834 
" style="fill:none;stroke:#1f77b4;stroke-linecap:square;stroke-width:1.5;"/>
   </g>
   <g id="line2d_14">
    <path clip-path="url(#p5d12d59c41)" d="M 114.297729 106.68744 
L 322.875091 243.829485 
" style="fill:none;stroke:#1f77b4;stroke-linecap:square;stroke-width:1.5;"/>
   </g>
   <g id="line2d_15">
    <path clip-path="url(#p5d12d59c41)" d="M 276.414565 107.656832 
L 217.03801 91.160754 
" style="fill:none;stroke:#1f77b4;stroke-linecap:square;stroke-width:1.5;"/>
   </g>
   <g id="line2d_16">
    <path clip-path="url(#p5d12d59c41)" d="M 331.383786 141.878338 
L 368.755884 109.184915 
" style="fill:none;stroke:#1f77b4;stroke-linecap:square;stroke-width:1.5;"/>
   </g>
   <g id="line2d_17">
    <path clip-path="url(#p5d12d59c41)" d="M 93.698481 259.214185 
L 236.229707 104.101982 
" style="fill:none;stroke:#1f77b4;stroke-linecap:square;stroke-width:1.5;"/>
   </g>
   <g id="line2d_18">
    <path clip-path="url(#p5d12d59c41)" d="M 77.078637 247.749828 
L 346.367265 118.215942 
" style="fill:none;stroke:#1f77b4;stroke-linecap:square;stroke-width:1.5;"/>
   </g>
   <g id="line2d_19">
    <path clip-path="url(#p5d12d59c41)" d="M 212.399711 30.831549 
L 311.821937 21.525266 
" style="fill:none;stroke:#1f77b4;stroke-linecap:square;stroke-width:1.5;"/>
   </g>
   <g id="line2d_20">
    <path clip-path="url(#p5d12d59c41)" d="M 350.389078 113.351157 
L 263.586675 24.086176 
" style="fill:none;stroke:#1f77b4;stroke-linecap:square;stroke-width:1.5;"/>
   </g>
   <g id="patch_3">
    <path d="M 30.103125 273.312 
L 30.103125 7.2 
" style="fill:none;stroke:#000000;stroke-linecap:square;stroke-linejoin:miter;stroke-width:0.8;"/>
   </g>
   <g id="patch_4">
    <path d="M 387.223125 273.312 
L 387.223125 7.2 
" style="fill:none;stroke:#000000;stroke-linecap:square;stroke-linejoin:miter;stroke-width:0.8;"/>
   </g>
   <g id="patch_5">
    <path d="M 30.103125 273.312 
L 387.223125 273.312 
" style="fill:none;stroke:#000000;stroke-linecap:square;stroke-linejoin:miter;stroke-width:0.8;"/>
   </g>
   <g id="patch_6">
    <path d="M 30.103125 7.2 
L 387.223125 7.2 
" style="fill:none;stroke:#000000;stroke-linecap:square;stroke-linejoin:miter;stroke-width:0.8;"/>
   </g>
  </g>
 </g>
 <defs>
  <clipPath id="p5d12d59c41">
   <rect height="266.112" width="357.12" x="30.103125" y="7.2"/>
  </clipPath>
 </defs>
</svg>
