<?xml version="1.0" encoding="utf-8" standalone="no"?>
<!DOCTYPE svg PUBLIC "-//W3C//DTD SVG 1.1//EN"
  "http://www.w3.org/Graphics/SVG/1.1/DTD/svg11.dtd">
<!-- Created with matplotlib (https://matplotlib.org/) -->
<svg height="298.101176pt" version="1.1" viewBox="0 0 394.423125 298.101176" width="394.423125pt" xmlns="http://www.w3.org/2000/svg" xmlns:xlink="http://www.w3.org/1999/xlink">
 <defs>
  <style type="text/css">
*{stroke-linecap:butt;stroke-linejoin:round;}
  </style>
 </defs>
 <g id="figure_1">
  <g id="patch_1">
   <path d="M 0 298.101176 
L 394.423125 298.101176 
L 394.423125 0 
L 0 0 
z
" style="fill:#ffffff;"/>
  </g>
  <g id="axes_1">
   <g id="patch_2">
    <path d="M 30.103125 274.223051 
L 387.223125 274.223051 
L 387.223125 8.111051 
L 30.103125 8.111051 
z
" style="fill:#ffffff;"/>
   </g>
   <g id="PathCollection_1">
    <defs>
     <path d="M 0 3 
C 0.795609 3 1.55874 2.683901 2.12132 2.12132 
C 2.683901 1.55874 3 0.795609 3 0 
C 3 -0.795609 2.683901 -1.55874 2.12132 -2.12132 
C 1.55874 -2.683901 0.795609 -3 0 -3 
C -0.795609 -3 -1.55874 -2.683901 -2.12132 -2.12132 
C -2.683901 -1.55874 -3 -0.795609 -3 0 
C -3 0.795609 -2.683901 1.55874 -2.12132 2.12132 
C -1.55874 2.683901 -0.795609 3 0 3 
z
" id="mc50fb123ae" style="stroke:#1f77b4;"/>
    </defs>
    <g clip-path="url(#pe324cc8abd)">
     <use style="fill:#1f77b4;stroke:#1f77b4;" x="274.764236" xlink:href="#mc50fb123ae" y="45.650476"/>
    </g>
   </g>
   <g id="PathCollection_2">
    <g clip-path="url(#pe324cc8abd)">
     <use style="fill:#1f77b4;stroke:#1f77b4;" x="125.409882" xlink:href="#mc50fb123ae" y="260.113862"/>
    </g>
   </g>
   <g id="PathCollection_3">
    <g clip-path="url(#pe324cc8abd)">
     <use style="fill:#1f77b4;stroke:#1f77b4;" x="332.13654" xlink:href="#mc50fb123ae" y="53.564718"/>
    </g>
   </g>
   <g id="PathCollection_4">
    <g clip-path="url(#pe324cc8abd)">
     <use style="fill:#1f77b4;stroke:#1f77b4;" x="359.468941" xlink:href="#mc50fb123ae" y="22.436317"/>
    </g>
   </g>
   <g id="PathCollection_5">
    <g clip-path="url(#pe324cc8abd)">
     <use style="fill:#1f77b4;stroke:#1f77b4;" x="350.979023" xlink:href="#mc50fb123ae" y="204.488611"/>
    </g>
   </g>
   <g id="PathCollection_6">
    <g clip-path="url(#pe324cc8abd)">
     <use style="fill:#1f77b4;stroke:#1f77b4;" x="354.121035" xlink:href="#mc50fb123ae" y="42.360186"/>
    </g>
   </g>
   <g id="PathCollection_7">
    <g clip-path="url(#pe324cc8abd)">
     <use style="fill:#1f77b4;stroke:#1f77b4;" x="349.802027" xlink:href="#mc50fb123ae" y="103.285101"/>
    </g>
   </g>
   <g id="PathCollection_8">
    <g clip-path="url(#pe324cc8abd)">
     <use style="fill:#1f77b4;stroke:#1f77b4;" x="271.087692" xlink:href="#mc50fb123ae" y="255.304955"/>
    </g>
   </g>
   <g id="PathCollection_9">
    <g clip-path="url(#pe324cc8abd)">
     <use style="fill:#1f77b4;stroke:#1f77b4;" x="122.570353" xlink:href="#mc50fb123ae" y="64.924394"/>
    </g>
   </g>
   <g id="PathCollection_10">
    <g clip-path="url(#pe324cc8abd)">
     <use style="fill:#1f77b4;stroke:#1f77b4;" x="229.172329" xlink:href="#mc50fb123ae" y="66.501337"/>
    </g>
   </g>
   <g id="PathCollection_11">
    <g clip-path="url(#pe324cc8abd)">
     <use style="fill:#1f77b4;stroke:#1f77b4;" x="265.540655" xlink:href="#mc50fb123ae" y="81.500362"/>
    </g>
   </g>
   <g id="PathCollection_12">
    <g clip-path="url(#pe324cc8abd)">
     <use style="fill:#1f77b4;stroke:#1f77b4;" x="342.325532" xlink:href="#mc50fb123ae" y="211.480496"/>
    </g>
   </g>
   <g id="PathCollection_13">
    <g clip-path="url(#pe324cc8abd)">
     <use style="fill:#1f77b4;stroke:#1f77b4;" x="48.502281" xlink:href="#mc50fb123ae" y="158.580588"/>
    </g>
   </g>
   <g id="PathCollection_14">
    <g clip-path="url(#pe324cc8abd)">
     <use style="fill:#1f77b4;stroke:#1f77b4;" x="267.67331" xlink:href="#mc50fb123ae" y="58.816042"/>
    </g>
   </g>
   <g id="PathCollection_15">
    <g clip-path="url(#pe324cc8abd)">
     <use style="fill:#1f77b4;stroke:#1f77b4;" x="234.139376" xlink:href="#mc50fb123ae" y="137.739156"/>
    </g>
   </g>
   <g id="PathCollection_16">
    <g clip-path="url(#pe324cc8abd)">
     <use style="fill:#1f77b4;stroke:#1f77b4;" x="230.73071" xlink:href="#mc50fb123ae" y="103.244997"/>
    </g>
   </g>
   <g id="PathCollection_17">
    <g clip-path="url(#pe324cc8abd)">
     <use style="fill:#1f77b4;stroke:#1f77b4;" x="182.669917" xlink:href="#mc50fb123ae" y="198.162993"/>
    </g>
   </g>
   <g id="PathCollection_18">
    <g clip-path="url(#pe324cc8abd)">
     <use style="fill:#1f77b4;stroke:#1f77b4;" x="368.755884" xlink:href="#mc50fb123ae" y="99.485672"/>
    </g>
   </g>
   <g id="PathCollection_19">
    <g clip-path="url(#pe324cc8abd)">
     <use style="fill:#1f77b4;stroke:#1f77b4;" x="302.666152" xlink:href="#mc50fb123ae" y="166.435061"/>
    </g>
   </g>
   <g id="PathCollection_20">
    <g clip-path="url(#pe324cc8abd)">
     <use style="fill:#1f77b4;stroke:#1f77b4;" x="112.011519" xlink:href="#mc50fb123ae" y="254.314223"/>
    </g>
   </g>
   <g id="PathCollection_21">
    <g clip-path="url(#pe324cc8abd)">
     <use style="fill:#1f77b4;stroke:#1f77b4;" x="264.631294" xlink:href="#mc50fb123ae" y="60.200739"/>
    </g>
   </g>
   <g id="PathCollection_22">
    <defs>
     <path d="M 0 3 
C 0.795609 3 1.55874 2.683901 2.12132 2.12132 
C 2.683901 1.55874 3 0.795609 3 0 
C 3 -0.795609 2.683901 -1.55874 2.12132 -2.12132 
C 1.55874 -2.683901 0.795609 -3 0 -3 
C -0.795609 -3 -1.55874 -2.683901 -2.12132 -2.12132 
C -2.683901 -1.55874 -3 -0.795609 -3 0 
C -3 0.795609 -2.683901 1.55874 -2.12132 2.12132 
C -1.55874 2.683901 -0.795609 3 0 3 
z
" id="m1ae046d5f9" style="stroke:#ff7f0e;"/>
    </defs>
    <g clip-path="url(#pe324cc8abd)">
     <use style="fill:#ff7f0e;stroke:#ff7f0e;" x="231.218343" xlink:href="#m1ae046d5f9" y="108.179619"/>
    </g>
   </g>
   <g id="PathCollection_23">
    <defs>
     <path d="M 0 3 
C 0.795609 3 1.55874 2.683901 2.12132 2.12132 
C 2.683901 1.55874 3 0.795609 3 0 
C 3 -0.795609 2.683901 -1.55874 2.12132 -2.12132 
C 1.55874 -2.683901 0.795609 -3 0 -3 
C -0.795609 -3 -1.55874 -2.683901 -2.12132 -2.12132 
C -2.683901 -1.55874 -3 -0.795609 -3 0 
C -3 0.795609 -2.683901 1.55874 -2.12132 2.12132 
C -1.55874 2.683901 -0.795609 3 0 3 
z
" id="mb4f1933466" style="stroke:#2ca02c;"/>
    </defs>
    <g clip-path="url(#pe324cc8abd)">
     <use style="fill:#2ca02c;stroke:#2ca02c;" x="137.692305" xlink:href="#mb4f1933466" y="242.477081"/>
    </g>
   </g>
   <g id="PathCollection_24">
    <defs>
     <path d="M 0 3 
C 0.795609 3 1.55874 2.683901 2.12132 2.12132 
C 2.683901 1.55874 3 0.795609 3 0 
C 3 -0.795609 2.683901 -1.55874 2.12132 -2.12132 
C 1.55874 -2.683901 0.795609 -3 0 -3 
C -0.795609 -3 -1.55874 -2.683901 -2.12132 -2.12132 
C -2.683901 -1.55874 -3 -0.795609 -3 0 
C -3 0.795609 -2.683901 1.55874 -2.12132 2.12132 
C -1.55874 2.683901 -0.795609 3 0 3 
z
" id="m4fc00fe582" style="stroke:#d62728;"/>
    </defs>
    <g clip-path="url(#pe324cc8abd)">
     <use style="fill:#d62728;stroke:#d62728;" x="352.850502" xlink:href="#m4fc00fe582" y="107.919948"/>
    </g>
   </g>
   <g id="PathCollection_25">
    <defs>
     <path d="M 0 3 
C 0.795609 3 1.55874 2.683901 2.12132 2.12132 
C 2.683901 1.55874 3 0.795609 3 0 
C 3 -0.795609 2.683901 -1.55874 2.12132 -2.12132 
C 1.55874 -2.683901 0.795609 -3 0 -3 
C -0.795609 -3 -1.55874 -2.683901 -2.12132 -2.12132 
C -2.683901 -1.55874 -3 -0.795609 -3 0 
C -3 0.795609 -2.683901 1.55874 -2.12132 2.12132 
C -1.55874 2.683901 -0.795609 3 0 3 
z
" id="m766ea07030" style="stroke:#9467bd;"/>
    </defs>
    <g clip-path="url(#pe324cc8abd)">
     <use style="fill:#9467bd;stroke:#9467bd;" x="316.455119" xlink:href="#m766ea07030" y="167.687501"/>
    </g>
   </g>
   <g id="PathCollection_26">
    <defs>
     <path d="M 0 3 
C 0.795609 3 1.55874 2.683901 2.12132 2.12132 
C 2.683901 1.55874 3 0.795609 3 0 
C 3 -0.795609 2.683901 -1.55874 2.12132 -2.12132 
C 1.55874 -2.683901 0.795609 -3 0 -3 
C -0.795609 -3 -1.55874 -2.683901 -2.12132 -2.12132 
C -2.683901 -1.55874 -3 -0.795609 -3 0 
C -3 0.795609 -2.683901 1.55874 -2.12132 2.12132 
C -1.55874 2.683901 -0.795609 3 0 3 
z
" id="m98844f49c1" style="stroke:#8c564b;"/>
    </defs>
    <g clip-path="url(#pe324cc8abd)">
     <use style="fill:#8c564b;stroke:#8c564b;" x="345.339961" xlink:href="#m98844f49c1" y="111.902624"/>
    </g>
   </g>
   <g id="PathCollection_27">
    <defs>
     <path d="M 0 3 
C 0.795609 3 1.55874 2.683901 2.12132 2.12132 
C 2.683901 1.55874 3 0.795609 3 0 
C 3 -0.795609 2.683901 -1.55874 2.12132 -2.12132 
C 1.55874 -2.683901 0.795609 -3 0 -3 
C -0.795609 -3 -1.55874 -2.683901 -2.12132 -2.12132 
C -2.683901 -1.55874 -3 -0.795609 -3 0 
C -3 0.795609 -2.683901 1.55874 -2.12132 2.12132 
C -1.55874 2.683901 -0.795609 3 0 3 
z
" id="m4565fea452" style="stroke:#e377c2;"/>
    </defs>
    <g clip-path="url(#pe324cc8abd)">
     <use style="fill:#e377c2;stroke:#e377c2;" x="316.455119" xlink:href="#m4565fea452" y="167.687501"/>
    </g>
   </g>
   <g id="PathCollection_28">
    <defs>
     <path d="M 0 3 
C 0.795609 3 1.55874 2.683901 2.12132 2.12132 
C 2.683901 1.55874 3 0.795609 3 0 
C 3 -0.795609 2.683901 -1.55874 2.12132 -2.12132 
C 1.55874 -2.683901 0.795609 -3 0 -3 
C -0.795609 -3 -1.55874 -2.683901 -2.12132 -2.12132 
C -2.683901 -1.55874 -3 -0.795609 -3 0 
C -3 0.795609 -2.683901 1.55874 -2.12132 2.12132 
C -1.55874 2.683901 -0.795609 3 0 3 
z
" id="m9c172004b2" style="stroke:#7f7f7f;"/>
    </defs>
    <g clip-path="url(#pe324cc8abd)">
     <use style="fill:#7f7f7f;stroke:#7f7f7f;" x="298.251447" xlink:href="#m9c172004b2" y="136.872634"/>
    </g>
   </g>
   <g id="PathCollection_29">
    <defs>
     <path d="M 0 3 
C 0.795609 3 1.55874 2.683901 2.12132 2.12132 
C 2.683901 1.55874 3 0.795609 3 0 
C 3 -0.795609 2.683901 -1.55874 2.12132 -2.12132 
C 1.55874 -2.683901 0.795609 -3 0 -3 
C -0.795609 -3 -1.55874 -2.683901 -2.12132 -2.12132 
C -2.683901 -1.55874 -3 -0.795609 -3 0 
C -3 0.795609 -2.683901 1.55874 -2.12132 2.12132 
C -1.55874 2.683901 -0.795609 3 0 3 
z
" id="mc93d4ae7fc" style="stroke:#bcbd22;"/>
    </defs>
    <g clip-path="url(#pe324cc8abd)">
     <use style="fill:#bcbd22;stroke:#bcbd22;" x="264.631294" xlink:href="#mc93d4ae7fc" y="60.200739"/>
    </g>
   </g>
   <g id="PathCollection_30">
    <defs>
     <path d="M 0 3 
C 0.795609 3 1.55874 2.683901 2.12132 2.12132 
C 2.683901 1.55874 3 0.795609 3 0 
C 3 -0.795609 2.683901 -1.55874 2.12132 -2.12132 
C 1.55874 -2.683901 0.795609 -3 0 -3 
C -0.795609 -3 -1.55874 -2.683901 -2.12132 -2.12132 
C -2.683901 -1.55874 -3 -0.795609 -3 0 
C -3 0.795609 -2.683901 1.55874 -2.12132 2.12132 
C -1.55874 2.683901 -0.795609 3 0 3 
z
" id="m153c43856d" style="stroke:#17becf;"/>
    </defs>
    <g clip-path="url(#pe324cc8abd)">
     <use style="fill:#17becf;stroke:#17becf;" x="231.218343" xlink:href="#m153c43856d" y="108.179619"/>
    </g>
   </g>
   <g id="PathCollection_31">
    <g clip-path="url(#pe324cc8abd)">
     <use style="fill:#1f77b4;stroke:#1f77b4;" x="352.850502" xlink:href="#mc50fb123ae" y="107.919948"/>
    </g>
   </g>
   <g id="PathCollection_32">
    <g clip-path="url(#pe324cc8abd)">
     <use style="fill:#ff7f0e;stroke:#ff7f0e;" x="345.339961" xlink:href="#m1ae046d5f9" y="111.902624"/>
    </g>
   </g>
   <g id="PathCollection_33">
    <g clip-path="url(#pe324cc8abd)">
     <use style="fill:#2ca02c;stroke:#2ca02c;" x="298.251447" xlink:href="#mb4f1933466" y="136.872634"/>
    </g>
   </g>
   <g id="PathCollection_34">
    <g clip-path="url(#pe324cc8abd)">
     <use style="fill:#d62728;stroke:#d62728;" x="137.692305" xlink:href="#m4fc00fe582" y="242.477081"/>
    </g>
   </g>
   <g id="matplotlib.axis_1">
    <g id="xtick_1">
     <g id="line2d_1">
      <defs>
       <path d="M 0 0 
L 0 3.5 
" id="mc1e0668fb5" style="stroke:#000000;stroke-width:0.8;"/>
      </defs>
      <g>
       <use style="stroke:#000000;stroke-width:0.8;" x="47.831384" xlink:href="#mc1e0668fb5" y="274.223051"/>
      </g>
     </g>
     <g id="text_1">
      <!-- 0.0 -->
      <defs>
       <path d="M 31.78125 66.40625 
Q 24.171875 66.40625 20.328125 58.90625 
Q 16.5 51.421875 16.5 36.375 
Q 16.5 21.390625 20.328125 13.890625 
Q 24.171875 6.390625 31.78125 6.390625 
Q 39.453125 6.390625 43.28125 13.890625 
Q 47.125 21.390625 47.125 36.375 
Q 47.125 51.421875 43.28125 58.90625 
Q 39.453125 66.40625 31.78125 66.40625 
z
M 31.78125 74.21875 
Q 44.046875 74.21875 50.515625 64.515625 
Q 56.984375 54.828125 56.984375 36.375 
Q 56.984375 17.96875 50.515625 8.265625 
Q 44.046875 -1.421875 31.78125 -1.421875 
Q 19.53125 -1.421875 13.0625 8.265625 
Q 6.59375 17.96875 6.59375 36.375 
Q 6.59375 54.828125 13.0625 64.515625 
Q 19.53125 74.21875 31.78125 74.21875 
z
" id="DejaVuSans-48"/>
       <path d="M 10.6875 12.40625 
L 21 12.40625 
L 21 0 
L 10.6875 0 
z
" id="DejaVuSans-46"/>
      </defs>
      <g transform="translate(39.879822 288.821488)scale(0.1 -0.1)">
       <use xlink:href="#DejaVuSans-48"/>
       <use x="63.623047" xlink:href="#DejaVuSans-46"/>
       <use x="95.410156" xlink:href="#DejaVuSans-48"/>
      </g>
     </g>
    </g>
    <g id="xtick_2">
     <g id="line2d_2">
      <g>
       <use style="stroke:#000000;stroke-width:0.8;" x="115.973826" xlink:href="#mc1e0668fb5" y="274.223051"/>
      </g>
     </g>
     <g id="text_2">
      <!-- 0.2 -->
      <defs>
       <path d="M 19.1875 8.296875 
L 53.609375 8.296875 
L 53.609375 0 
L 7.328125 0 
L 7.328125 8.296875 
Q 12.9375 14.109375 22.625 23.890625 
Q 32.328125 33.6875 34.8125 36.53125 
Q 39.546875 41.84375 41.421875 45.53125 
Q 43.3125 49.21875 43.3125 52.78125 
Q 43.3125 58.59375 39.234375 62.25 
Q 35.15625 65.921875 28.609375 65.921875 
Q 23.96875 65.921875 18.8125 64.3125 
Q 13.671875 62.703125 7.8125 59.421875 
L 7.8125 69.390625 
Q 13.765625 71.78125 18.9375 73 
Q 24.125 74.21875 28.421875 74.21875 
Q 39.75 74.21875 46.484375 68.546875 
Q 53.21875 62.890625 53.21875 53.421875 
Q 53.21875 48.921875 51.53125 44.890625 
Q 49.859375 40.875 45.40625 35.40625 
Q 44.1875 33.984375 37.640625 27.21875 
Q 31.109375 20.453125 19.1875 8.296875 
z
" id="DejaVuSans-50"/>
      </defs>
      <g transform="translate(108.022264 288.821488)scale(0.1 -0.1)">
       <use xlink:href="#DejaVuSans-48"/>
       <use x="63.623047" xlink:href="#DejaVuSans-46"/>
       <use x="95.410156" xlink:href="#DejaVuSans-50"/>
      </g>
     </g>
    </g>
    <g id="xtick_3">
     <g id="line2d_3">
      <g>
       <use style="stroke:#000000;stroke-width:0.8;" x="184.116268" xlink:href="#mc1e0668fb5" y="274.223051"/>
      </g>
     </g>
     <g id="text_3">
      <!-- 0.4 -->
      <defs>
       <path d="M 37.796875 64.3125 
L 12.890625 25.390625 
L 37.796875 25.390625 
z
M 35.203125 72.90625 
L 47.609375 72.90625 
L 47.609375 25.390625 
L 58.015625 25.390625 
L 58.015625 17.1875 
L 47.609375 17.1875 
L 47.609375 0 
L 37.796875 0 
L 37.796875 17.1875 
L 4.890625 17.1875 
L 4.890625 26.703125 
z
" id="DejaVuSans-52"/>
      </defs>
      <g transform="translate(176.164706 288.821488)scale(0.1 -0.1)">
       <use xlink:href="#DejaVuSans-48"/>
       <use x="63.623047" xlink:href="#DejaVuSans-46"/>
       <use x="95.410156" xlink:href="#DejaVuSans-52"/>
      </g>
     </g>
    </g>
    <g id="xtick_4">
     <g id="line2d_4">
      <g>
       <use style="stroke:#000000;stroke-width:0.8;" x="252.25871" xlink:href="#mc1e0668fb5" y="274.223051"/>
      </g>
     </g>
     <g id="text_4">
      <!-- 0.6 -->
      <defs>
       <path d="M 33.015625 40.375 
Q 26.375 40.375 22.484375 35.828125 
Q 18.609375 31.296875 18.609375 23.390625 
Q 18.609375 15.53125 22.484375 10.953125 
Q 26.375 6.390625 33.015625 6.390625 
Q 39.65625 6.390625 43.53125 10.953125 
Q 47.40625 15.53125 47.40625 23.390625 
Q 47.40625 31.296875 43.53125 35.828125 
Q 39.65625 40.375 33.015625 40.375 
z
M 52.59375 71.296875 
L 52.59375 62.3125 
Q 48.875 64.0625 45.09375 64.984375 
Q 41.3125 65.921875 37.59375 65.921875 
Q 27.828125 65.921875 22.671875 59.328125 
Q 17.53125 52.734375 16.796875 39.40625 
Q 19.671875 43.65625 24.015625 45.921875 
Q 28.375 48.1875 33.59375 48.1875 
Q 44.578125 48.1875 50.953125 41.515625 
Q 57.328125 34.859375 57.328125 23.390625 
Q 57.328125 12.15625 50.6875 5.359375 
Q 44.046875 -1.421875 33.015625 -1.421875 
Q 20.359375 -1.421875 13.671875 8.265625 
Q 6.984375 17.96875 6.984375 36.375 
Q 6.984375 53.65625 15.1875 63.9375 
Q 23.390625 74.21875 37.203125 74.21875 
Q 40.921875 74.21875 44.703125 73.484375 
Q 48.484375 72.75 52.59375 71.296875 
z
" id="DejaVuSans-54"/>
      </defs>
      <g transform="translate(244.307148 288.821488)scale(0.1 -0.1)">
       <use xlink:href="#DejaVuSans-48"/>
       <use x="63.623047" xlink:href="#DejaVuSans-46"/>
       <use x="95.410156" xlink:href="#DejaVuSans-54"/>
      </g>
     </g>
    </g>
    <g id="xtick_5">
     <g id="line2d_5">
      <g>
       <use style="stroke:#000000;stroke-width:0.8;" x="320.401152" xlink:href="#mc1e0668fb5" y="274.223051"/>
      </g>
     </g>
     <g id="text_5">
      <!-- 0.8 -->
      <defs>
       <path d="M 31.78125 34.625 
Q 24.75 34.625 20.71875 30.859375 
Q 16.703125 27.09375 16.703125 20.515625 
Q 16.703125 13.921875 20.71875 10.15625 
Q 24.75 6.390625 31.78125 6.390625 
Q 38.8125 6.390625 42.859375 10.171875 
Q 46.921875 13.96875 46.921875 20.515625 
Q 46.921875 27.09375 42.890625 30.859375 
Q 38.875 34.625 31.78125 34.625 
z
M 21.921875 38.8125 
Q 15.578125 40.375 12.03125 44.71875 
Q 8.5 49.078125 8.5 55.328125 
Q 8.5 64.0625 14.71875 69.140625 
Q 20.953125 74.21875 31.78125 74.21875 
Q 42.671875 74.21875 48.875 69.140625 
Q 55.078125 64.0625 55.078125 55.328125 
Q 55.078125 49.078125 51.53125 44.71875 
Q 48 40.375 41.703125 38.8125 
Q 48.828125 37.15625 52.796875 32.3125 
Q 56.78125 27.484375 56.78125 20.515625 
Q 56.78125 9.90625 50.3125 4.234375 
Q 43.84375 -1.421875 31.78125 -1.421875 
Q 19.734375 -1.421875 13.25 4.234375 
Q 6.78125 9.90625 6.78125 20.515625 
Q 6.78125 27.484375 10.78125 32.3125 
Q 14.796875 37.15625 21.921875 38.8125 
z
M 18.3125 54.390625 
Q 18.3125 48.734375 21.84375 45.5625 
Q 25.390625 42.390625 31.78125 42.390625 
Q 38.140625 42.390625 41.71875 45.5625 
Q 45.3125 48.734375 45.3125 54.390625 
Q 45.3125 60.0625 41.71875 63.234375 
Q 38.140625 66.40625 31.78125 66.40625 
Q 25.390625 66.40625 21.84375 63.234375 
Q 18.3125 60.0625 18.3125 54.390625 
z
" id="DejaVuSans-56"/>
      </defs>
      <g transform="translate(312.44959 288.821488)scale(0.1 -0.1)">
       <use xlink:href="#DejaVuSans-48"/>
       <use x="63.623047" xlink:href="#DejaVuSans-46"/>
       <use x="95.410156" xlink:href="#DejaVuSans-56"/>
      </g>
     </g>
    </g>
   </g>
   <g id="matplotlib.axis_2">
    <g id="ytick_1">
     <g id="line2d_6">
      <defs>
       <path d="M 0 0 
L -3.5 0 
" id="m7429a6201e" style="stroke:#000000;stroke-width:0.8;"/>
      </defs>
      <g>
       <use style="stroke:#000000;stroke-width:0.8;" x="30.103125" xlink:href="#m7429a6201e" y="246.724672"/>
      </g>
     </g>
     <g id="text_6">
      <!-- 0.2 -->
      <g transform="translate(7.2 250.523891)scale(0.1 -0.1)">
       <use xlink:href="#DejaVuSans-48"/>
       <use x="63.623047" xlink:href="#DejaVuSans-46"/>
       <use x="95.410156" xlink:href="#DejaVuSans-50"/>
      </g>
     </g>
    </g>
    <g id="ytick_2">
     <g id="line2d_7">
      <g>
       <use style="stroke:#000000;stroke-width:0.8;" x="30.103125" xlink:href="#m7429a6201e" y="187.793309"/>
      </g>
     </g>
     <g id="text_7">
      <!-- 0.4 -->
      <g transform="translate(7.2 191.592527)scale(0.1 -0.1)">
       <use xlink:href="#DejaVuSans-48"/>
       <use x="63.623047" xlink:href="#DejaVuSans-46"/>
       <use x="95.410156" xlink:href="#DejaVuSans-52"/>
      </g>
     </g>
    </g>
    <g id="ytick_3">
     <g id="line2d_8">
      <g>
       <use style="stroke:#000000;stroke-width:0.8;" x="30.103125" xlink:href="#m7429a6201e" y="128.861945"/>
      </g>
     </g>
     <g id="text_8">
      <!-- 0.6 -->
      <g transform="translate(7.2 132.661164)scale(0.1 -0.1)">
       <use xlink:href="#DejaVuSans-48"/>
       <use x="63.623047" xlink:href="#DejaVuSans-46"/>
       <use x="95.410156" xlink:href="#DejaVuSans-54"/>
      </g>
     </g>
    </g>
    <g id="ytick_4">
     <g id="line2d_9">
      <g>
       <use style="stroke:#000000;stroke-width:0.8;" x="30.103125" xlink:href="#m7429a6201e" y="69.930582"/>
      </g>
     </g>
     <g id="text_9">
      <!-- 0.8 -->
      <g transform="translate(7.2 73.729801)scale(0.1 -0.1)">
       <use xlink:href="#DejaVuSans-48"/>
       <use x="63.623047" xlink:href="#DejaVuSans-46"/>
       <use x="95.410156" xlink:href="#DejaVuSans-56"/>
      </g>
     </g>
    </g>
    <g id="ytick_5">
     <g id="line2d_10">
      <g>
       <use style="stroke:#000000;stroke-width:0.8;" x="30.103125" xlink:href="#m7429a6201e" y="10.999219"/>
      </g>
     </g>
     <g id="text_10">
      <!-- 1.0 -->
      <defs>
       <path d="M 12.40625 8.296875 
L 28.515625 8.296875 
L 28.515625 63.921875 
L 10.984375 60.40625 
L 10.984375 69.390625 
L 28.421875 72.90625 
L 38.28125 72.90625 
L 38.28125 8.296875 
L 54.390625 8.296875 
L 54.390625 0 
L 12.40625 0 
z
" id="DejaVuSans-49"/>
      </defs>
      <g transform="translate(7.2 14.798437)scale(0.1 -0.1)">
       <use xlink:href="#DejaVuSans-49"/>
       <use x="63.623047" xlink:href="#DejaVuSans-46"/>
       <use x="95.410156" xlink:href="#DejaVuSans-48"/>
      </g>
     </g>
    </g>
   </g>
   <g id="line2d_11">
    <path clip-path="url(#pe324cc8abd)" d="M 274.764236 45.650476 
L 125.409882 260.113862 
" style="fill:none;stroke:#1f77b4;stroke-linecap:square;stroke-width:1.5;"/>
   </g>
   <g id="line2d_12">
    <path clip-path="url(#pe324cc8abd)" d="M 332.13654 53.564718 
L 359.468941 22.436317 
" style="fill:none;stroke:#1f77b4;stroke-linecap:square;stroke-width:1.5;"/>
   </g>
   <g id="line2d_13">
    <path clip-path="url(#pe324cc8abd)" d="M 350.979023 204.488611 
L 354.121035 42.360186 
" style="fill:none;stroke:#1f77b4;stroke-linecap:square;stroke-width:1.5;"/>
   </g>
   <g id="line2d_14">
    <path clip-path="url(#pe324cc8abd)" d="M 349.802027 103.285101 
L 271.087692 255.304955 
" style="fill:none;stroke:#1f77b4;stroke-linecap:square;stroke-width:1.5;"/>
   </g>
   <g id="line2d_15">
    <path clip-path="url(#pe324cc8abd)" d="M 122.570353 64.924394 
L 229.172329 66.501337 
" style="fill:none;stroke:#1f77b4;stroke-linecap:square;stroke-width:1.5;"/>
   </g>
   <g id="line2d_16">
    <path clip-path="url(#pe324cc8abd)" d="M 265.540655 81.500362 
L 342.325532 211.480496 
" style="fill:none;stroke:#1f77b4;stroke-linecap:square;stroke-width:1.5;"/>
   </g>
   <g id="line2d_17">
    <path clip-path="url(#pe324cc8abd)" d="M 48.502281 158.580588 
L 267.67331 58.816042 
" style="fill:none;stroke:#1f77b4;stroke-linecap:square;stroke-width:1.5;"/>
   </g>
   <g id="line2d_18">
    <path clip-path="url(#pe324cc8abd)" d="M 234.139376 137.739156 
L 230.73071 103.244997 
" style="fill:none;stroke:#1f77b4;stroke-linecap:square;stroke-width:1.5;"/>
   </g>
   <g id="line2d_19">
    <path clip-path="url(#pe324cc8abd)" d="M 182.669917 198.162993 
L 368.755884 99.485672 
" style="fill:none;stroke:#1f77b4;stroke-linecap:square;stroke-width:1.5;"/>
   </g>
   <g id="line2d_20">
    <path clip-path="url(#pe324cc8abd)" d="M 302.666152 166.435061 
L 112.011519 254.314223 
" style="fill:none;stroke:#1f77b4;stroke-linecap:square;stroke-width:1.5;"/>
   </g>
   <g id="patch_3">
    <path d="M 30.103125 274.223051 
L 30.103125 8.111051 
" style="fill:none;stroke:#000000;stroke-linecap:square;stroke-linejoin:miter;stroke-width:0.8;"/>
   </g>
   <g id="patch_4">
    <path d="M 387.223125 274.223051 
L 387.223125 8.111051 
" style="fill:none;stroke:#000000;stroke-linecap:square;stroke-linejoin:miter;stroke-width:0.8;"/>
   </g>
   <g id="patch_5">
    <path d="M 30.103125 274.223051 
L 387.223125 274.223051 
" style="fill:none;stroke:#000000;stroke-linecap:square;stroke-linejoin:miter;stroke-width:0.8;"/>
   </g>
   <g id="patch_6">
    <path d="M 30.103125 8.111051 
L 387.223125 8.111051 
" style="fill:none;stroke:#000000;stroke-linecap:square;stroke-linejoin:miter;stroke-width:0.8;"/>
   </g>
  </g>
 </g>
 <defs>
  <clipPath id="pe324cc8abd">
   <rect height="266.112" width="357.12" x="30.103125" y="8.111051"/>
  </clipPath>
 </defs>
</svg>
