<?xml version="1.0" encoding="utf-8" standalone="no"?>
<!DOCTYPE svg PUBLIC "-//W3C//DTD SVG 1.1//EN"
  "http://www.w3.org/Graphics/SVG/1.1/DTD/svg11.dtd">
<!-- Created with matplotlib (https://matplotlib.org/) -->
<svg height="297.190125pt" version="1.1" viewBox="0 0 265.938248 297.190125" width="265.938248pt" xmlns="http://www.w3.org/2000/svg" xmlns:xlink="http://www.w3.org/1999/xlink">
 <defs>
  <style type="text/css">
*{stroke-linecap:butt;stroke-linejoin:round;}
  </style>
 </defs>
 <g id="figure_1">
  <g id="patch_1">
   <path d="M 0 297.190125 
L 265.938248 297.190125 
L 265.938248 0 
L 0 0 
z
" style="fill:#ffffff;"/>
  </g>
  <g id="axes_1">
   <g id="patch_2">
    <path d="M 38.482813 273.312 
L 258.738248 273.312 
L 258.738248 7.2 
L 38.482813 7.2 
z
" style="fill:#ffffff;"/>
   </g>
   <g id="PathCollection_1"/>
   <g id="PathCollection_2"/>
   <g id="PathCollection_3"/>
   <g id="PathCollection_4"/>
   <g id="PathCollection_5"/>
   <g id="PathCollection_6"/>
   <g id="PathCollection_7"/>
   <g id="patch_3">
    <path clip-path="url(#p4746d5e8cd)" d="M 154.430658 179.4349 
L 101.997753 172.023732 
L 220.333306 150.437202 
L 199.700766 19.296 
L 48.494423 121.35478 
L 61.961176 261.216 
L 248.726637 245.94726 
z
" style="fill:#d3d3d3;stroke:#000000;stroke-linejoin:miter;stroke-width:2;"/>
   </g>
   <g id="patch_4">
    <path clip-path="url(#p4746d5e8cd)" d="M 154.430658 179.4349 
C 154.430658 179.4349 154.430658 179.4349 154.430658 179.4349 
C 154.430658 179.4349 154.430658 179.4349 154.430658 179.4349 
C 154.430658 179.4349 154.430658 179.4349 154.430658 179.4349 
C 154.430658 179.4349 154.430658 179.4349 154.430658 179.4349 
C 154.430658 179.4349 154.430658 179.4349 154.430658 179.4349 
C 154.430658 179.4349 154.430658 179.4349 154.430658 179.4349 
C 154.430658 179.4349 154.430658 179.4349 154.430658 179.4349 
C 154.430658 179.4349 154.430658 179.4349 154.430658 179.4349 
z
" style="fill:none;stroke:#0000ff;stroke-linejoin:miter;"/>
   </g>
   <g id="patch_5">
    <path clip-path="url(#p4746d5e8cd)" d="M 101.997753 172.023732 
C 101.997753 172.023732 101.997753 172.023732 101.997753 172.023732 
C 101.997753 172.023732 101.997753 172.023732 101.997753 172.023732 
C 101.997753 172.023732 101.997753 172.023732 101.997753 172.023732 
C 101.997753 172.023732 101.997753 172.023732 101.997753 172.023732 
C 101.997753 172.023732 101.997753 172.023732 101.997753 172.023732 
C 101.997753 172.023732 101.997753 172.023732 101.997753 172.023732 
C 101.997753 172.023732 101.997753 172.023732 101.997753 172.023732 
C 101.997753 172.023732 101.997753 172.023732 101.997753 172.023732 
z
" style="fill:none;stroke:#0000ff;stroke-linejoin:miter;"/>
   </g>
   <g id="patch_6">
    <path clip-path="url(#p4746d5e8cd)" d="M 220.333306 150.437202 
C 220.333306 150.437202 220.333306 150.437202 220.333306 150.437202 
C 220.333306 150.437202 220.333306 150.437202 220.333306 150.437202 
C 220.333306 150.437202 220.333306 150.437202 220.333306 150.437202 
C 220.333306 150.437202 220.333306 150.437202 220.333306 150.437202 
C 220.333306 150.437202 220.333306 150.437202 220.333306 150.437202 
C 220.333306 150.437202 220.333306 150.437202 220.333306 150.437202 
C 220.333306 150.437202 220.333306 150.437202 220.333306 150.437202 
C 220.333306 150.437202 220.333306 150.437202 220.333306 150.437202 
z
" style="fill:none;stroke:#0000ff;stroke-linejoin:miter;"/>
   </g>
   <g id="patch_7">
    <path clip-path="url(#p4746d5e8cd)" d="M 199.700766 19.296 
C 199.700766 19.296 199.700766 19.296 199.700766 19.296 
C 199.700766 19.296 199.700766 19.296 199.700766 19.296 
C 199.700766 19.296 199.700766 19.296 199.700766 19.296 
C 199.700766 19.296 199.700766 19.296 199.700766 19.296 
C 199.700766 19.296 199.700766 19.296 199.700766 19.296 
C 199.700766 19.296 199.700766 19.296 199.700766 19.296 
C 199.700766 19.296 199.700766 19.296 199.700766 19.296 
C 199.700766 19.296 199.700766 19.296 199.700766 19.296 
z
" style="fill:none;stroke:#0000ff;stroke-linejoin:miter;"/>
   </g>
   <g id="patch_8">
    <path clip-path="url(#p4746d5e8cd)" d="M 48.494423 121.35478 
C 48.494423 121.35478 48.494423 121.35478 48.494423 121.35478 
C 48.494423 121.35478 48.494423 121.35478 48.494423 121.35478 
C 48.494423 121.35478 48.494423 121.35478 48.494423 121.35478 
C 48.494423 121.35478 48.494423 121.35478 48.494423 121.35478 
C 48.494423 121.35478 48.494423 121.35478 48.494423 121.35478 
C 48.494423 121.35478 48.494423 121.35478 48.494423 121.35478 
C 48.494423 121.35478 48.494423 121.35478 48.494423 121.35478 
C 48.494423 121.35478 48.494423 121.35478 48.494423 121.35478 
z
" style="fill:none;stroke:#0000ff;stroke-linejoin:miter;"/>
   </g>
   <g id="patch_9">
    <path clip-path="url(#p4746d5e8cd)" d="M 61.961176 261.216 
C 61.961176 261.216 61.961176 261.216 61.961176 261.216 
C 61.961176 261.216 61.961176 261.216 61.961176 261.216 
C 61.961176 261.216 61.961176 261.216 61.961176 261.216 
C 61.961176 261.216 61.961176 261.216 61.961176 261.216 
C 61.961176 261.216 61.961176 261.216 61.961176 261.216 
C 61.961176 261.216 61.961176 261.216 61.961176 261.216 
C 61.961176 261.216 61.961176 261.216 61.961176 261.216 
C 61.961176 261.216 61.961176 261.216 61.961176 261.216 
z
" style="fill:none;stroke:#0000ff;stroke-linejoin:miter;"/>
   </g>
   <g id="patch_10">
    <path clip-path="url(#p4746d5e8cd)" d="M 248.726637 245.94726 
C 248.726637 245.94726 248.726637 245.94726 248.726637 245.94726 
C 248.726637 245.94726 248.726637 245.94726 248.726637 245.94726 
C 248.726637 245.94726 248.726637 245.94726 248.726637 245.94726 
C 248.726637 245.94726 248.726637 245.94726 248.726637 245.94726 
C 248.726637 245.94726 248.726637 245.94726 248.726637 245.94726 
C 248.726637 245.94726 248.726637 245.94726 248.726637 245.94726 
C 248.726637 245.94726 248.726637 245.94726 248.726637 245.94726 
C 248.726637 245.94726 248.726637 245.94726 248.726637 245.94726 
z
" style="fill:none;stroke:#0000ff;stroke-linejoin:miter;"/>
   </g>
   <g id="patch_11">
    <path clip-path="url(#p4746d5e8cd)" d="M 60.16782 179.543978 
C 61.940212 179.543978 63.64025 178.839799 64.89352 177.586528 
C 66.146791 176.333258 66.850969 174.63322 66.850969 172.860828 
C 66.850969 171.088436 66.146791 169.388399 64.89352 168.135128 
C 63.64025 166.881858 61.940212 166.177679 60.16782 166.177679 
C 58.395428 166.177679 56.69539 166.881858 55.44212 168.135128 
C 54.18885 169.388399 53.484671 171.088436 53.484671 172.860828 
C 53.484671 174.63322 54.18885 176.333258 55.44212 177.586528 
C 56.69539 178.839799 58.395428 179.543978 60.16782 179.543978 
z
" style="fill:none;stroke:#0000ff;stroke-linejoin:miter;"/>
   </g>
   <g id="patch_12">
    <path clip-path="url(#p4746d5e8cd)" d="M 85.801952 174.39314 
C 95.203418 174.39314 104.22109 170.657898 110.868931 164.010058 
C 117.516771 157.362217 121.252013 148.344545 121.252013 138.943079 
C 121.252013 129.541613 117.516771 120.523941 110.868931 113.876101 
C 104.22109 107.22826 95.203418 103.493018 85.801952 103.493018 
C 76.400486 103.493018 67.382814 107.22826 60.734973 113.876101 
C 54.087133 120.523941 50.351891 129.541613 50.351891 138.943079 
C 50.351891 148.344545 54.087133 157.362217 60.734973 164.010058 
C 67.382814 170.657898 76.400486 174.39314 85.801952 174.39314 
z
" style="fill:none;stroke:#0000ff;stroke-linejoin:miter;"/>
   </g>
   <g id="patch_13">
    <path clip-path="url(#p4746d5e8cd)" d="M 139.843397 254.720464 
C 150.049062 254.720464 159.838103 250.665711 167.054598 243.449216 
C 174.271093 236.232721 178.325847 226.443679 178.325847 216.238014 
C 178.325847 206.032349 174.271093 196.243308 167.054598 189.026813 
C 159.838103 181.810318 150.049062 177.755564 139.843397 177.755564 
C 129.637732 177.755564 119.848691 181.810318 112.632196 189.026813 
C 105.415701 196.243308 101.360947 206.032349 101.360947 216.238014 
C 101.360947 226.443679 105.415701 236.232721 112.632196 243.449216 
C 119.848691 250.665711 129.637732 254.720464 139.843397 254.720464 
z
" style="fill:none;stroke:#0000ff;stroke-linejoin:miter;"/>
   </g>
   <g id="patch_14">
    <path clip-path="url(#p4746d5e8cd)" d="M 100.553499 257.918027 
C 111.913825 257.918027 122.81039 253.404522 130.843353 245.371559 
C 138.876317 237.338596 143.389822 226.44203 143.389822 215.081705 
C 143.389822 203.721379 138.876317 192.824814 130.843353 184.79185 
C 122.81039 176.758887 111.913825 172.245382 100.553499 172.245382 
C 89.193173 172.245382 78.296608 176.758887 70.263645 184.79185 
C 62.230681 192.824814 57.717176 203.721379 57.717176 215.081705 
C 57.717176 226.44203 62.230681 237.338596 70.263645 245.371559 
C 78.296608 253.404522 89.193173 257.918027 100.553499 257.918027 
z
" style="fill:none;stroke:#0000ff;stroke-linejoin:miter;"/>
   </g>
   <g id="patch_15">
    <path clip-path="url(#p4746d5e8cd)" d="M 160.960686 160.40803 
C 174.778569 160.40803 188.032367 154.918127 197.803086 145.147408 
C 207.573805 135.376689 213.063708 122.122891 213.063708 108.305008 
C 213.063708 94.487125 207.573805 81.233326 197.803086 71.462608 
C 188.032367 61.691889 174.778569 56.201986 160.960686 56.201986 
C 147.142803 56.201986 133.889004 61.691889 124.118286 71.462608 
C 114.347567 81.233326 108.857664 94.487125 108.857664 108.305008 
C 108.857664 122.122891 114.347567 135.376689 124.118286 145.147408 
C 133.889004 154.918127 147.142803 160.40803 160.960686 160.40803 
z
" style="fill:none;stroke:#0000ff;stroke-linejoin:miter;"/>
   </g>
   <g id="matplotlib.axis_1">
    <g id="xtick_1">
     <g id="line2d_1">
      <defs>
       <path d="M 0 0 
L 0 3.5 
" id="m23eb86b70b" style="stroke:#000000;stroke-width:0.8;"/>
      </defs>
      <g>
       <use style="stroke:#000000;stroke-width:0.8;" x="40.528629" xlink:href="#m23eb86b70b" y="273.312"/>
      </g>
     </g>
     <g id="text_1">
      <!-- −0.4 -->
      <defs>
       <path d="M 10.59375 35.5 
L 73.1875 35.5 
L 73.1875 27.203125 
L 10.59375 27.203125 
z
" id="DejaVuSans-8722"/>
       <path d="M 31.78125 66.40625 
Q 24.171875 66.40625 20.328125 58.90625 
Q 16.5 51.421875 16.5 36.375 
Q 16.5 21.390625 20.328125 13.890625 
Q 24.171875 6.390625 31.78125 6.390625 
Q 39.453125 6.390625 43.28125 13.890625 
Q 47.125 21.390625 47.125 36.375 
Q 47.125 51.421875 43.28125 58.90625 
Q 39.453125 66.40625 31.78125 66.40625 
z
M 31.78125 74.21875 
Q 44.046875 74.21875 50.515625 64.515625 
Q 56.984375 54.828125 56.984375 36.375 
Q 56.984375 17.96875 50.515625 8.265625 
Q 44.046875 -1.421875 31.78125 -1.421875 
Q 19.53125 -1.421875 13.0625 8.265625 
Q 6.59375 17.96875 6.59375 36.375 
Q 6.59375 54.828125 13.0625 64.515625 
Q 19.53125 74.21875 31.78125 74.21875 
z
" id="DejaVuSans-48"/>
       <path d="M 10.6875 12.40625 
L 21 12.40625 
L 21 0 
L 10.6875 0 
z
" id="DejaVuSans-46"/>
       <path d="M 37.796875 64.3125 
L 12.890625 25.390625 
L 37.796875 25.390625 
z
M 35.203125 72.90625 
L 47.609375 72.90625 
L 47.609375 25.390625 
L 58.015625 25.390625 
L 58.015625 17.1875 
L 47.609375 17.1875 
L 47.609375 0 
L 37.796875 0 
L 37.796875 17.1875 
L 4.890625 17.1875 
L 4.890625 26.703125 
z
" id="DejaVuSans-52"/>
      </defs>
      <g transform="translate(28.387223 287.910437)scale(0.1 -0.1)">
       <use xlink:href="#DejaVuSans-8722"/>
       <use x="83.789062" xlink:href="#DejaVuSans-48"/>
       <use x="147.412109" xlink:href="#DejaVuSans-46"/>
       <use x="179.199219" xlink:href="#DejaVuSans-52"/>
      </g>
     </g>
    </g>
    <g id="xtick_2">
     <g id="line2d_2">
      <g>
       <use style="stroke:#000000;stroke-width:0.8;" x="89.467242" xlink:href="#m23eb86b70b" y="273.312"/>
      </g>
     </g>
     <g id="text_2">
      <!-- −0.2 -->
      <defs>
       <path d="M 19.1875 8.296875 
L 53.609375 8.296875 
L 53.609375 0 
L 7.328125 0 
L 7.328125 8.296875 
Q 12.9375 14.109375 22.625 23.890625 
Q 32.328125 33.6875 34.8125 36.53125 
Q 39.546875 41.84375 41.421875 45.53125 
Q 43.3125 49.21875 43.3125 52.78125 
Q 43.3125 58.59375 39.234375 62.25 
Q 35.15625 65.921875 28.609375 65.921875 
Q 23.96875 65.921875 18.8125 64.3125 
Q 13.671875 62.703125 7.8125 59.421875 
L 7.8125 69.390625 
Q 13.765625 71.78125 18.9375 73 
Q 24.125 74.21875 28.421875 74.21875 
Q 39.75 74.21875 46.484375 68.546875 
Q 53.21875 62.890625 53.21875 53.421875 
Q 53.21875 48.921875 51.53125 44.890625 
Q 49.859375 40.875 45.40625 35.40625 
Q 44.1875 33.984375 37.640625 27.21875 
Q 31.109375 20.453125 19.1875 8.296875 
z
" id="DejaVuSans-50"/>
      </defs>
      <g transform="translate(77.325836 287.910437)scale(0.1 -0.1)">
       <use xlink:href="#DejaVuSans-8722"/>
       <use x="83.789062" xlink:href="#DejaVuSans-48"/>
       <use x="147.412109" xlink:href="#DejaVuSans-46"/>
       <use x="179.199219" xlink:href="#DejaVuSans-50"/>
      </g>
     </g>
    </g>
    <g id="xtick_3">
     <g id="line2d_3">
      <g>
       <use style="stroke:#000000;stroke-width:0.8;" x="138.405855" xlink:href="#m23eb86b70b" y="273.312"/>
      </g>
     </g>
     <g id="text_3">
      <!-- 0.0 -->
      <g transform="translate(130.454292 287.910437)scale(0.1 -0.1)">
       <use xlink:href="#DejaVuSans-48"/>
       <use x="63.623047" xlink:href="#DejaVuSans-46"/>
       <use x="95.410156" xlink:href="#DejaVuSans-48"/>
      </g>
     </g>
    </g>
    <g id="xtick_4">
     <g id="line2d_4">
      <g>
       <use style="stroke:#000000;stroke-width:0.8;" x="187.344468" xlink:href="#m23eb86b70b" y="273.312"/>
      </g>
     </g>
     <g id="text_4">
      <!-- 0.2 -->
      <g transform="translate(179.392906 287.910437)scale(0.1 -0.1)">
       <use xlink:href="#DejaVuSans-48"/>
       <use x="63.623047" xlink:href="#DejaVuSans-46"/>
       <use x="95.410156" xlink:href="#DejaVuSans-50"/>
      </g>
     </g>
    </g>
    <g id="xtick_5">
     <g id="line2d_5">
      <g>
       <use style="stroke:#000000;stroke-width:0.8;" x="236.283081" xlink:href="#m23eb86b70b" y="273.312"/>
      </g>
     </g>
     <g id="text_5">
      <!-- 0.4 -->
      <g transform="translate(228.331519 287.910437)scale(0.1 -0.1)">
       <use xlink:href="#DejaVuSans-48"/>
       <use x="63.623047" xlink:href="#DejaVuSans-46"/>
       <use x="95.410156" xlink:href="#DejaVuSans-52"/>
      </g>
     </g>
    </g>
   </g>
   <g id="matplotlib.axis_2">
    <g id="ytick_1">
     <g id="line2d_6">
      <defs>
       <path d="M 0 0 
L -3.5 0 
" id="m3277c7e8af" style="stroke:#000000;stroke-width:0.8;"/>
      </defs>
      <g>
       <use style="stroke:#000000;stroke-width:0.8;" x="38.482813" xlink:href="#m3277c7e8af" y="237.179045"/>
      </g>
     </g>
     <g id="text_6">
      <!-- −0.4 -->
      <g transform="translate(7.2 240.978263)scale(0.1 -0.1)">
       <use xlink:href="#DejaVuSans-8722"/>
       <use x="83.789062" xlink:href="#DejaVuSans-48"/>
       <use x="147.412109" xlink:href="#DejaVuSans-46"/>
       <use x="179.199219" xlink:href="#DejaVuSans-52"/>
      </g>
     </g>
    </g>
    <g id="ytick_2">
     <g id="line2d_7">
      <g>
       <use style="stroke:#000000;stroke-width:0.8;" x="38.482813" xlink:href="#m3277c7e8af" y="188.240432"/>
      </g>
     </g>
     <g id="text_7">
      <!-- −0.2 -->
      <g transform="translate(7.2 192.03965)scale(0.1 -0.1)">
       <use xlink:href="#DejaVuSans-8722"/>
       <use x="83.789062" xlink:href="#DejaVuSans-48"/>
       <use x="147.412109" xlink:href="#DejaVuSans-46"/>
       <use x="179.199219" xlink:href="#DejaVuSans-50"/>
      </g>
     </g>
    </g>
    <g id="ytick_3">
     <g id="line2d_8">
      <g>
       <use style="stroke:#000000;stroke-width:0.8;" x="38.482813" xlink:href="#m3277c7e8af" y="139.301818"/>
      </g>
     </g>
     <g id="text_8">
      <!-- 0.0 -->
      <g transform="translate(15.579688 143.101037)scale(0.1 -0.1)">
       <use xlink:href="#DejaVuSans-48"/>
       <use x="63.623047" xlink:href="#DejaVuSans-46"/>
       <use x="95.410156" xlink:href="#DejaVuSans-48"/>
      </g>
     </g>
    </g>
    <g id="ytick_4">
     <g id="line2d_9">
      <g>
       <use style="stroke:#000000;stroke-width:0.8;" x="38.482813" xlink:href="#m3277c7e8af" y="90.363205"/>
      </g>
     </g>
     <g id="text_9">
      <!-- 0.2 -->
      <g transform="translate(15.579688 94.162424)scale(0.1 -0.1)">
       <use xlink:href="#DejaVuSans-48"/>
       <use x="63.623047" xlink:href="#DejaVuSans-46"/>
       <use x="95.410156" xlink:href="#DejaVuSans-50"/>
      </g>
     </g>
    </g>
    <g id="ytick_5">
     <g id="line2d_10">
      <g>
       <use style="stroke:#000000;stroke-width:0.8;" x="38.482813" xlink:href="#m3277c7e8af" y="41.424592"/>
      </g>
     </g>
     <g id="text_10">
      <!-- 0.4 -->
      <g transform="translate(15.579688 45.223811)scale(0.1 -0.1)">
       <use xlink:href="#DejaVuSans-48"/>
       <use x="63.623047" xlink:href="#DejaVuSans-46"/>
       <use x="95.410156" xlink:href="#DejaVuSans-52"/>
      </g>
     </g>
    </g>
   </g>
   <g id="line2d_11">
    <path clip-path="url(#p4746d5e8cd)" d="M 139.843397 216.238014 
L 154.430658 179.4349 
" style="fill:none;stroke:#ff0000;stroke-linecap:square;stroke-width:2;"/>
   </g>
   <g id="line2d_12">
    <path clip-path="url(#p4746d5e8cd)" d="M 154.430658 179.4349 
L 139.843397 216.238014 
" style="fill:none;stroke:#ff0000;stroke-linecap:square;stroke-width:2;"/>
   </g>
   <g id="line2d_13">
    <path clip-path="url(#p4746d5e8cd)" d="M 60.16782 172.860828 
L 101.997753 172.023732 
" style="fill:none;stroke:#ff0000;stroke-linecap:square;stroke-width:2;"/>
   </g>
   <g id="line2d_14">
    <path clip-path="url(#p4746d5e8cd)" d="M 101.997753 172.023732 
L 60.16782 172.860828 
" style="fill:none;stroke:#ff0000;stroke-linecap:square;stroke-width:2;"/>
   </g>
   <g id="line2d_15">
    <path clip-path="url(#p4746d5e8cd)" d="M 160.960686 108.305008 
L 220.333306 150.437202 
" style="fill:none;stroke:#ff0000;stroke-linecap:square;stroke-width:2;"/>
   </g>
   <g id="line2d_16">
    <path clip-path="url(#p4746d5e8cd)" d="M 220.333306 150.437202 
L 160.960686 108.305008 
" style="fill:none;stroke:#ff0000;stroke-linecap:square;stroke-width:2;"/>
   </g>
   <g id="line2d_17">
    <path clip-path="url(#p4746d5e8cd)" d="M 160.960686 108.305008 
L 199.700766 19.296 
" style="fill:none;stroke:#ff0000;stroke-linecap:square;stroke-width:2;"/>
   </g>
   <g id="line2d_18">
    <path clip-path="url(#p4746d5e8cd)" d="M 199.700766 19.296 
L 160.960686 108.305008 
" style="fill:none;stroke:#ff0000;stroke-linecap:square;stroke-width:2;"/>
   </g>
   <g id="line2d_19">
    <path clip-path="url(#p4746d5e8cd)" d="M 85.801952 138.943079 
L 48.494423 121.35478 
" style="fill:none;stroke:#ff0000;stroke-linecap:square;stroke-width:2;"/>
   </g>
   <g id="line2d_20">
    <path clip-path="url(#p4746d5e8cd)" d="M 48.494423 121.35478 
L 85.801952 138.943079 
" style="fill:none;stroke:#ff0000;stroke-linecap:square;stroke-width:2;"/>
   </g>
   <g id="line2d_21">
    <path clip-path="url(#p4746d5e8cd)" d="M 100.553499 215.081705 
L 61.961176 261.216 
" style="fill:none;stroke:#ff0000;stroke-linecap:square;stroke-width:2;"/>
   </g>
   <g id="line2d_22">
    <path clip-path="url(#p4746d5e8cd)" d="M 61.961176 261.216 
L 100.553499 215.081705 
" style="fill:none;stroke:#ff0000;stroke-linecap:square;stroke-width:2;"/>
   </g>
   <g id="line2d_23">
    <path clip-path="url(#p4746d5e8cd)" d="M 139.843397 216.238014 
L 248.726637 245.94726 
" style="fill:none;stroke:#ff0000;stroke-linecap:square;stroke-width:2;"/>
   </g>
   <g id="line2d_24">
    <path clip-path="url(#p4746d5e8cd)" d="M 248.726637 245.94726 
L 139.843397 216.238014 
" style="fill:none;stroke:#ff0000;stroke-linecap:square;stroke-width:2;"/>
   </g>
   <g id="line2d_25">
    <path clip-path="url(#p4746d5e8cd)" d="M 100.553499 215.081705 
L 60.16782 172.860828 
" style="fill:none;stroke:#ff0000;stroke-linecap:square;stroke-width:2;"/>
   </g>
   <g id="line2d_26">
    <path clip-path="url(#p4746d5e8cd)" d="M 60.16782 172.860828 
L 100.553499 215.081705 
" style="fill:none;stroke:#ff0000;stroke-linecap:square;stroke-width:2;"/>
   </g>
   <g id="line2d_27">
    <path clip-path="url(#p4746d5e8cd)" d="M 85.801952 138.943079 
L 60.16782 172.860828 
" style="fill:none;stroke:#ff0000;stroke-linecap:square;stroke-width:2;"/>
   </g>
   <g id="line2d_28">
    <path clip-path="url(#p4746d5e8cd)" d="M 60.16782 172.860828 
L 85.801952 138.943079 
" style="fill:none;stroke:#ff0000;stroke-linecap:square;stroke-width:2;"/>
   </g>
   <g id="line2d_29">
    <path clip-path="url(#p4746d5e8cd)" d="M 160.960686 108.305008 
L 85.801952 138.943079 
" style="fill:none;stroke:#ff0000;stroke-linecap:square;stroke-width:2;"/>
   </g>
   <g id="line2d_30">
    <path clip-path="url(#p4746d5e8cd)" d="M 85.801952 138.943079 
L 160.960686 108.305008 
" style="fill:none;stroke:#ff0000;stroke-linecap:square;stroke-width:2;"/>
   </g>
   <g id="line2d_31">
    <path clip-path="url(#p4746d5e8cd)" d="M 100.553499 215.081705 
L 139.843397 216.238014 
" style="fill:none;stroke:#ff0000;stroke-linecap:square;stroke-width:2;"/>
   </g>
   <g id="line2d_32">
    <path clip-path="url(#p4746d5e8cd)" d="M 139.843397 216.238014 
L 100.553499 215.081705 
" style="fill:none;stroke:#ff0000;stroke-linecap:square;stroke-width:2;"/>
   </g>
   <g id="patch_16">
    <path d="M 38.482813 273.312 
L 38.482813 7.2 
" style="fill:none;stroke:#000000;stroke-linecap:square;stroke-linejoin:miter;stroke-width:0.8;"/>
   </g>
   <g id="patch_17">
    <path d="M 258.738248 273.312 
L 258.738248 7.2 
" style="fill:none;stroke:#000000;stroke-linecap:square;stroke-linejoin:miter;stroke-width:0.8;"/>
   </g>
   <g id="patch_18">
    <path d="M 38.482813 273.312 
L 258.738248 273.312 
" style="fill:none;stroke:#000000;stroke-linecap:square;stroke-linejoin:miter;stroke-width:0.8;"/>
   </g>
   <g id="patch_19">
    <path d="M 38.482813 7.2 
L 258.738248 7.2 
" style="fill:none;stroke:#000000;stroke-linecap:square;stroke-linejoin:miter;stroke-width:0.8;"/>
   </g>
  </g>
 </g>
 <defs>
  <clipPath id="p4746d5e8cd">
   <rect height="266.112" width="220.255435" x="38.482813" y="7.2"/>
  </clipPath>
 </defs>
</svg>
